<?xml version="1.0" encoding="UTF-8"?>
<!DOCTYPE svg PUBLIC "-//W3C//DTD SVG 1.1//EN" "http://www.w3.org/Graphics/SVG/1.1/DTD/svg11.dtd">
<!-- Creator: CorelDRAW 2020 (64-Bit) -->
<svg xmlns="http://www.w3.org/2000/svg" xml:space="preserve" width="512px" height="512px" version="1.1" style="shape-rendering:geometricPrecision; text-rendering:geometricPrecision; image-rendering:optimizeQuality; fill-rule:evenodd; clip-rule:evenodd"
viewBox="0 0 512 512"
 xmlns:xlink="http://www.w3.org/1999/xlink"
 xmlns:xodm="http://www.corel.com/coreldraw/odm/2003">
 <defs>
  <style type="text/css">
   <![CDATA[
    .fil59 {fill:#024355}
    .fil43 {fill:#02455B}
    .fil6 {fill:#033D53}
    .fil14 {fill:#03647B}
    .fil7 {fill:#036A7E}
    .fil41 {fill:#042937}
    .fil38 {fill:#043848}
    .fil5 {fill:#051518}
    .fil32 {fill:#055266}
    .fil0 {fill:#05556A}
    .fil45 {fill:#084957}
    .fil2 {fill:#09768D}
    .fil57 {fill:#0A6175}
    .fil35 {fill:#0A647A}
    .fil54 {fill:#0A697D}
    .fil37 {fill:#111926}
    .fil1 {fill:#127E99}
    .fil46 {fill:#13758B}
    .fil3 {fill:#1386A1}
    .fil9 {fill:#161818}
    .fil53 {fill:#173237}
    .fil4 {fill:#173819}
    .fil58 {fill:#281903}
    .fil20 {fill:#373429}
    .fil71 {fill:#483417}
    .fil36 {fill:#4A3406}
    .fil26 {fill:#4A382B}
    .fil8 {fill:#583504}
    .fil67 {fill:#674717}
    .fil31 {fill:#683A0F}
    .fil56 {fill:#716B53}
    .fil39 {fill:#765015}
    .fil55 {fill:#774905}
    .fil70 {fill:#875B29}
    .fil72 {fill:#885A16}
    .fil16 {fill:#8A6516}
    .fil60 {fill:#8A7B62}
    .fil44 {fill:#918C75}
    .fil68 {fill:#976817}
    .fil61 {fill:#986A24}
    .fil42 {fill:#9A9886}
    .fil66 {fill:#9B7526}
    .fil47 {fill:#A49C86}
    .fil12 {fill:#A87926}
    .fil73 {fill:#AA8936}
    .fil28 {fill:#AAA895}
    .fil18 {fill:#AB8428}
    .fil13 {fill:#B37C27}
    .fil24 {fill:#B3AC96}
    .fil30 {fill:#B78828}
    .fil50 {fill:#B88935}
    .fil34 {fill:#BB9328}
    .fil52 {fill:#BB9537}
    .fil15 {fill:#C3BDA8}
    .fil22 {fill:#C79936}
    .fil69 {fill:#C89945}
    .fil11 {fill:#C9C7B7}
    .fil49 {fill:#CAA438}
    .fil25 {fill:#CAA547}
    .fil76 {fill:#CDB98C}
    .fil77 {fill:#D5C98F}
    .fil23 {fill:#D6A739}
    .fil33 {fill:#D7A946}
    .fil48 {fill:#D7AA55}
    .fil19 {fill:#D9B657}
    .fil29 {fill:#DBB448}
    .fil51 {fill:#E4B849}
    .fil40 {fill:#E6BA56}
    .fil74 {fill:#E9D26F}
    .fil10 {fill:#EAC867}
    .fil62 {fill:#EACA75}
    .fil63 {fill:#EBD9A9}
    .fil21 {fill:#EED173}
    .fil75 {fill:#EFD58E}
    .fil17 {fill:#F7D778}
    .fil78 {fill:#F7F1CF}
    .fil27 {fill:#F8DB86}
    .fil64 {fill:#FAEEAF}
    .fil65 {fill:#FCE697}
   ]]>
  </style>
 </defs>
 <g id="Слой_x0020_1">
  <metadata id="CorelCorpID_0Corel-Layer"/>
  <g id="_2369034528816">
   <path class="fil0" d="M140.208 221.519c-1.739,9.78 -1.778,12.793 -0.995,19.447 0.4,3.39 -2.151,10.655 -4.425,11.251l10.198 6.478c-4.585,1.527 -7.702,4.401 -12.364,4.892 -7.522,0.793 -2.871,-2.64 -8.912,-0.843 -1.12,0.333 -4.482,2.506 -6.444,-1.547 -3.315,-6.85 -1.218,-1.235 -10.106,-2.579 7.567,-8.152 -0.518,-2.629 -4.858,-5.546 1.421,-3.654 2.207,-9.044 4.539,-7.404l-9.977 -6.257 0.858 -4.981c-1.203,1.508 -14.105,46.045 -17.875,54.792 -9.206,21.36 -3.821,31.441 6.95,51.991 8.68,16.562 14.939,28.858 27.974,42.731 6.286,6.69 29.901,30.12 37.155,30.488 4.381,0.186 6.353,-0.91 9.081,0.258 4.695,2.01 2.78,5.536 11.386,7.428l1.466 0.303c0.197,0.038 0.544,0.051 0.748,0.091 1.896,0.373 -0.312,-1.982 4.6,1.402 -2.359,1.875 -3.462,2.195 -4.295,5.836l1.247 0.225 0.947 -3.09c6.862,1.384 6.627,0.375 8.219,3.927l1.448 -2.67c2.283,2.149 2.713,6.669 2.048,9.229l11.377 4.959c2.038,-1.038 22.979,7.238 14.665,-2.636 7.957,1.65 0.827,3.147 2.338,9.034l8.744 -2.303 -2.233 -4.156c4.413,-3.185 5.519,0.456 5.705,-3.702 0.217,-4.862 -4.899,-2.727 0.266,-7.704 7.286,-7.024 0.413,-43.136 0.378,-53.968 -0.09,-27.532 -1.554,-66.874 0.355,-93.691l-2.527 -1.568c3.033,-1.232 3.471,-4.191 1.976,-7.514 -1.382,-3.071 -1.446,-1.897 -5.277,-3.214 -0.437,-0.151 -5,-4.97 -9.419,-2.578 5.427,-1.102 1.109,-0.404 8.334,-0.216l2.578 -7.906c-3.923,-1.485 -5.226,-4.265 -10.019,-2.805 -5.951,1.813 -5.59,3.805 -3.885,5.905 -1.521,-1.343 -0.375,-0.81 -2.601,-3.785 -1.778,2.053 -2.634,3.696 -5.689,4.733l-1.962 9.611 -5.603 1.898 0.778 3.412 -7.241 -0.096c-3.117,6.613 0.285,-0.059 0.072,3.829 -9.27,-7.556 -6.135,1.372 -10.841,-11.481 -0.691,-1.886 0.534,-0.907 -1.764,-2.624 -6.38,-4.766 -6.959,0.541 -8.318,-3.61 -1.067,8.252 1.916,3.572 -2.338,9.522l-18.43 0.322c-4.251,-8.861 0.809,-22.701 -1.412,-31.925 -1.365,-5.669 -13.162,-8.748 -1.961,-23.684l-4.659 2.089z"/>
   <path class="fil0" d="M351.764 259.663c-1.546,11.412 -13.769,20.804 -24.574,21.824 -7.476,0.706 -8.742,-1.649 -11.418,-2.239 -0.973,-0.214 -3.329,-0.256 -3.881,-0.398 -3.872,-1.003 -10.264,-8.366 -9.545,-12.33l-2.613 -4.345c-6.725,-0.465 -7.242,-11.812 -7.407,-14.396 -3.936,3.488 -5.053,1.018 -6.874,5.078 -0.047,0.104 -0.166,0.442 -0.221,0.556 -5.841,12.175 -3.762,10.113 -4.062,27.409l-1.184 91.43c-0.014,10.202 -1.581,25.286 4.32,30.12 -16.315,14.36 2.749,14.969 -2.842,34.768 13.598,3.353 2.795,-5.479 14.157,4.092l8.8 -3.737c-2.282,5.07 -2.499,-2.168 -4.71,3.835 -1.134,3.076 2.357,-1.049 -1.806,4.422l4.733 1.063c66.347,-29.103 110.032,-66.139 133.113,-134.977 3.334,-9.944 -5.588,-22.664 -9.259,-32.172 -2.09,-5.412 -8.865,-30.784 -10.483,-32.745l-4.036 -1.212 -2.369 6.544c-0.374,-0.193 -6.425,-8.086 -4.088,0.858 1.014,3.881 0.646,5.203 -3.545,9.867 -9.628,-5.247 -1.747,-3.845 -7.943,6.604 -13.284,0.763 -0.073,-3.798 -14.61,2.36 -0.001,3.752 -1.768,-2.76 1.623,0.894l1.712 3.045c2.673,3.077 0.195,-2.685 2.294,2.096l-5.051 5.127c-4.772,-3.024 -0.944,-2.381 -2.45,-3.33 -7.487,-4.722 2.811,3.134 -2.344,-0.609 -2.914,-2.116 -1.741,-4.124 -2.371,-6.972l-9.613 -0.938c0.648,-5.034 -2.038,1.571 -0.474,-4.494 1.339,-5.195 0.574,1.693 1.652,-4.091l1.787 -8.603c1.346,-4.021 0.384,0.591 -0.141,-2.821 -0.392,-2.543 3.737,-9.2 5.177,-16.228 -14.893,7.037 -4.01,4.518 -11.124,12.288 -5.596,6.114 -7.577,-1.262 -8.33,12.357z"/>
   <path class="fil1" d="M279.579 63.627c-1,4.447 -2.538,6.631 -4.684,9.957l-1.954 -1.785c1.301,20.913 -1.273,57.156 9.886,74.212l49.422 2.894c5.783,1.223 4.383,5.722 4.005,11.558l1.52 -3.854c1.039,5.148 3.186,11.872 2.447,15.362 -0.019,0.088 -0.129,0.392 -0.15,0.476l-0.329 0.904c-0.016,0.085 -0.113,0.403 -0.121,0.491 -0.167,2.118 -0.455,1.707 1.865,3.613 -2.323,2.225 -6.042,3.88 -3.204,3.608 3.254,4.073 2.77,2.656 1.618,5.738l9.69 9.849 7.017 1.556 -1.019 4.172 3.188 -0.158c-6.701,8.006 3.163,1.387 -3.017,7.708l2.466 1.983 1.821 -0.311c7.862,2.034 11.487,3.164 15.298,8.566 -0.501,-2.276 0.185,-4.215 3.746,-5.039 3.707,-0.859 4.969,0.999 4.79,-6.033l8.131 0.551c-9.905,-7.159 3.955,-2.612 -5.363,-6.489 5.629,-5.288 9.061,-2.778 5.964,-6.853 -2.059,-2.708 -6.793,-4.494 -7.006,-7.177 -0.188,-2.36 3.683,-5.593 5.804,-6.962 10.906,-7.036 10.958,12.883 12.226,-18.596 0.173,-4.292 1.49,-16.55 4.42,-19.837 2.012,-20.273 7.558,-40.554 15.847,-58.272 14.434,-30.855 18.809,-16.711 8.183,-53.247 -26.399,6.02 -50.701,10.31 -77.964,12.962 -11.778,1.146 -84.758,3.379 -87.67,4.971l15.45 1.569c1.597,4.956 2.788,10 -2.323,11.913z"/>
   <path class="fil2" d="M104.969 186.907c1.144,5.11 0.353,7.653 1.422,11.964 2.277,9.189 -0.586,-0.955 4.868,5.605 7.649,9.199 -5.482,-3.629 2.021,6.574 0.141,0.193 2.788,2.561 2.862,2.587 3.252,1.144 -0.311,-0.343 4.343,-0.994 0.064,11.639 5.007,5.963 3.803,14.166 -0.559,3.806 -6.149,1.586 1.108,3.121 4.557,0.965 2.391,-1.023 8.384,-2.183 1.241,-3.417 -2.902,6.923 -0.526,-3.492l0.212 -1.094c0.394,-1.418 -4.534,-0.924 1.924,-2.61 3.741,-0.977 2.321,-0.611 4.818,0.968l4.659 -2.089 76.141 0.557 0.175 -3.577c3.263,0.64 -4.083,3.726 -7.643,-1.043 -0.087,-0.117 -1.013,-2.202 -2.065,-4.009 4.826,-3.344 4.751,-4.372 10.764,-5.152l-6.378 -2.235 4.195 -2.645c-4.705,-2.116 -3.43,-0.427 -4.803,-3.082 -2.066,-3.996 -0.114,-1.254 0.057,-4.685 0.002,-0.057 3.902,0.467 -2.268,-3.814 -2.354,-1.634 -2.762,-1.931 -6.169,-2.427 -0.061,0.105 0.019,0.215 0.009,0.363l-0.428 1.362c-0.671,1.016 0.583,0.403 -2.416,2.55 -0.099,-0.052 -5.014,-2.546 -5.053,-2.556l-5.977 -0.103c-0.331,0.034 -0.805,0.103 -1.075,0.135 -0.271,0.031 -0.715,0.135 -1.077,0.146 1.399,-2.949 -1.073,-2.573 4.294,-2.85l-7.925 -0.442c-3.209,4.547 -0.6,-4.731 0.253,1.87 0.011,0.085 0.098,0.448 0.059,0.669l-4.083 -1.695c-4.27,-3.927 -1.278,3.326 -3.649,-3.822l-1.425 -2.669c-2.697,-1.067 -1.22,0.785 -1.84,-4.365l-1.183 -23.592 1.122 -3.34c5.96,-1.346 15.764,1.098 20.239,-1.746l-9.201 -2.273 -2.835 -6.458 -7.897 1.105c-3.96,-10.491 -3.007,-2.957 -7.554,-10.229 -6.749,-10.794 -1.725,-1.982 -7.656,-9.07l6.79 0.2c-4.63,-1.751 -4.436,-4.478 -2.751,-8.203 5.107,0.399 4.881,-1.374 3.85,4.969l0.119 -5.048c-6.375,0.101 -13.983,3.632 -16.506,-5.618l7.598 -2.035c-4.553,-0.288 -21.173,-9.732 -21.353,-17.611 7.985,0.775 -1.814,-3.284 -5.187,-8.013 1.453,-0.969 5.818,-0.122 4.088,-2.883 -4.351,-6.944 -1.178,-4.035 -2.677,-6.403 -1.488,-2.348 -3.182,1.259 -5.356,-4.923l-2.479 -6.65c8.194,-3.051 9.095,-8.255 15.38,-9.586 3.078,-0.652 22.638,-0.628 25.799,0.184 9.574,2.459 33.117,1.441 45.403,1.551 7.232,0.065 10.948,1.168 13.703,-1.488 -9.179,-1.2 -22.685,1.993 -30.309,-1.905 -10.682,3.708 -103.769,-8.029 -109.331,-13.685l-7.656 -0.563c-17.961,41.423 13.585,36.534 22.322,106.903 1.639,13.209 -0.175,37.804 1.947,47.406z"/>
   <path class="fil3" d="M196.718 147.233l24.685 -0.52 8.127 -0.545 1.214 -6.033c-0.954,-5.612 -0.565,-7.119 -5.994,-9.13 0.315,-0.205 0.833,-0.858 0.965,-0.584 0.143,0.298 0.745,-0.282 1.59,-1.103 3.201,-3.111 0.565,1.547 0.585,-7.907 0.014,-6.48 3.615,-2.369 -1.221,-7.341 -0.777,4.072 1.806,2.265 3.103,2.55 4.883,-5.425 3.039,-5.91 0.234,-9.947 1.697,-0.61 2.355,-0.974 3.348,-1.432 5.133,-2.363 -0.859,2.449 2.679,-1.648 1.748,-2.024 -0.853,-2.388 -3.609,-5.158 8.537,-3.174 -0.882,2.592 5.864,-8.136 0.185,-0.294 0.454,-0.71 0.749,-1.007l-0.828 0.495 -0.138 -3.898c-5.391,-5.476 0.281,-0.521 -1.997,-4.38 -0.991,-1.678 -2.453,1.986 -2.749,-5.241 -0.319,-7.791 -2.452,-3.498 -2.835,-13.443l-0.405 -10.757 14.665 -1.349c-3.757,-2.993 -11.553,-1.701 -16.754,-1.968 -2.755,2.656 -6.471,1.553 -13.703,1.488 -12.286,-0.11 -35.829,0.908 -45.403,-1.551 -3.161,-0.812 -22.721,-0.836 -25.799,-0.184 -6.285,1.331 -7.186,6.535 -15.38,9.586l2.479 6.65c2.174,6.182 3.868,2.575 5.356,4.923 1.499,2.368 -1.674,-0.541 2.677,6.403 1.73,2.761 -2.635,1.914 -4.088,2.883 3.373,4.729 13.172,8.788 5.187,8.013 0.18,7.879 16.8,17.323 21.353,17.611l-7.598 2.035c2.523,9.25 10.131,5.719 16.506,5.618l-0.119 5.048c1.031,-6.343 1.257,-4.57 -3.85,-4.969 -1.685,3.725 -1.879,6.452 2.751,8.203l-6.79 -0.2c5.931,7.088 0.907,-1.724 7.656,9.07 4.547,7.272 3.594,-0.262 7.554,10.229l7.897 -1.105 2.835 6.458 9.201 2.273z"/>
   <path class="fil4" d="M66.804 56.879c3.998,9.978 12.046,19.42 15.15,30.312 7.345,9.577 18.469,58.815 16.019,71.966 5.18,9.756 -3.04,62.605 -6.699,75.719 -1.783,8.489 -11.633,47.903 -16.313,52.053 -3.194,12.145 -8.68,14.666 -4.701,28.079 1.227,4.137 6.999,20.689 9.2,23.16 2.454,6.56 4.55,10.201 7.566,16.337 2.763,5.621 7.773,10.206 9.631,15.595l11.674 13.208c3.881,3.841 3.866,2.759 4.514,7.864 3.382,0.876 2.948,1.035 5.367,4.319 4.059,-0.056 4.24,0.309 5.001,4.406l5.43 5.386 2.69 2.489c3.727,1.71 8.801,5.32 10.707,8.535 3.884,1.277 3.451,0.696 5.279,3.615l16.262 9.497c4.832,-0.023 16.205,6.592 17.935,10.375 3.627,0.36 25.718,11.666 27.594,14.403l8.378 3.206 10.455 7.144 12.289 8.693c3.913,1.88 13.766,7.803 15.445,11.431l4.496 -2.996 7.396 -6.176c2.124,-3.003 4.417,-5.232 8.509,-5.948l17.371 -10.717 12.175 -7.548c1.996,-3.25 3.251,-3.473 7.275,-3.853l12.022 -5.646c3.654,-3.159 14.662,-8.302 19.589,-11.233 5.778,-3.439 14.512,-8.583 19.593,-12.399 0.979,-1.695 -2.581,-1.324 3.432,-2.224l10.191 -6.865c1.709,-3.085 2.824,-3.649 6.339,-5.032 0.523,-3.217 -0.877,-1.586 2.053,-2.262 1.908,-4.064 4.603,-4.68 7.997,-8.163 2.633,-2.701 4.766,-5.468 7.65,-8.108 0.458,-2.962 7.046,-10.306 9.553,-13.639 2.685,-3.571 6.891,-10.41 9.47,-12.869 6.744,-14.188 22.426,-40.607 22.14,-56.204 -4.098,-6.996 -9.01,-17.889 -11.513,-25.712 -2.753,-8.604 -5.423,-20.479 -8.802,-28.335 -4.231,-24.917 -8.736,-41.722 -9.74,-67.952 -0.667,-9.097 0.168,-43.822 4.144,-50.363 -0.664,-5.895 4.391,-28.682 8.908,-31.884 0.326,-12.427 17.443,-32.32 18.646,-39.108l-7.67 -27.592 -4.815 0.369c10.626,36.536 6.251,22.392 -8.183,53.247 -8.289,17.718 -13.835,37.999 -15.847,58.272 -0.302,19.682 -1.561,33.89 0.008,54.141 1.333,17.197 5.677,32.694 7.944,49.049 1.618,1.961 8.393,27.333 10.483,32.745 3.671,9.508 12.593,22.228 9.259,32.172 -23.081,68.838 -66.766,105.874 -133.113,134.977 -3.931,6.593 -37.439,20.509 -46.933,33.805 -8.662,-9.098 -15.102,-12.765 -25.263,-19.74 -5.607,-3.849 -28.364,-15.102 -30.243,-18.55l-11.377 -4.959c-4.921,-1.49 -9.679,-3.348 -12.662,-7.396l-1.247 -0.225c-4.9,-1.324 -8.439,-3.959 -12.683,-6.638 -3.752,-2.368 -8.516,-4.497 -10.303,-8.68 -7.254,-0.368 -30.869,-23.798 -37.155,-30.488 -13.035,-13.873 -19.294,-26.169 -27.974,-42.731 -10.771,-20.55 -16.156,-30.631 -6.95,-51.991 3.77,-8.747 16.672,-53.284 17.875,-54.792l7.247 -47.523c-2.122,-9.602 -0.308,-34.197 -1.947,-47.406 -8.737,-70.369 -40.283,-65.48 -22.322,-106.903l7.656 0.563c-2.609,-3.287 -8.271,-4.938 -12.993,-6.118 -1.597,5.677 -1.895,11.014 -3.698,16.842 -1.024,3.31 -4.518,11.359 -4.861,12.994z"/>
   <path class="fil5" d="M236.135 335.128l-0.072 -84.608 -0.057 -7.126 0.613 -4.023 11.782 0.068 5.992 0.041 0.246 9.241 0.281 163.753 -0.259 37.554 -1.043 -2.992c-5.276,-4.625 -11.08,-23.89 -12.989,-31.394l-3.317 -17.13 -1.177 -63.384zm21.036 13.903l-0.193 -66.982 0.156 -0.28 0.018 -31.323 0.395 -11.056 16.588 -0.461 1.494 1.716 -0.132 8.488c-2.484,42.955 8.693,169.498 -19.134,199.304l0.808 -99.406zm-112.265 -124.909c3.818,-1.784 133.843,-1.895 146.139,-0.441l0.024 11.792c-7.559,4.497 -76.691,-0.702 -92.731,1.471l0.343 34.258 -12.192 -0.501 -0.324 -7.536 3.884 -1.334 -0.693 -4.288 -10.464 -0.29 -0.041 -12.878 -8.59 0.889 -0.129 10.19c-4.519,0.48 -7.991,-0.734 -11.02,3.304 1.489,5.743 -0.91,1.12 4.327,4.778l-0.437 7.337 -12.38 -0.028 0.594 -33.345c-1.98,-1.926 -4.262,-1.47 -6.255,-3.753l-0.055 -9.625zm113.357 -43.344c3.314,-7.195 8.07,-11.68 16.885,-11.854l0.249 4.031 0.09 5.963 -0.105 40.761 -16.001 0.013c-3.445,-2.505 -2.283,-4.007 -2.201,-9.592 0.054,-3.693 0.017,-7.327 -0.048,-11.016 -0.049,-2.795 -1.351,-17.936 1.131,-18.306zm-21.846 -5.298l0.368 -6.399c8.771,0.411 11.614,4.967 16.641,10.036l1.097 40.571 -18.405 -0.055 0.299 -44.153zm97.052 -23.686l-1.841 17.855 -1.276 3.804c-16.33,-10.476 -21.596,-7.54 -40.465,-7.367 -33.891,0.31 -21.477,4.339 -34.408,12.452 -8.946,-13.843 -19.375,-12.858 -35.13,-12.699 -30.808,0.312 -19.765,-2.947 -39.918,8.098 -1.858,-3.256 -2.495,-5.29 -2.204,-9.404l0.617 -8.41 -3.487 -3.804 1.183 23.592 3.505 2.255c11.7,-8.167 10.491,-7.506 25.676,-7.331 6.647,0.077 20.702,1.591 24.582,3.763 1.53,7.982 4.874,39.957 1.495,45.455l-2.398 -0.245 -8.392 0.179 -76.141 -0.557c-11.201,14.936 0.596,18.015 1.961,23.684 2.221,9.224 -2.839,23.064 1.412,31.925l18.43 -0.322 -0.422 -12.357c9.633,-5.251 6.936,1.446 8.207,-13.109 3.898,10.81 -5.002,6.54 7.416,12.146l1.293 13.162 13.158 1.206 5.603 -1.898 1.015 -33.642 27.62 -0.013c6.744,14.904 -9.429,197.365 23.947,217.789 28.134,-11.625 27.769,-177.787 24.27,-198.754l1.739 -19.079c5.781,0.088 9.907,-1.681 14.818,1.605 2.462,-4.419 0.823,-1.871 2.685,-1.216 -6.142,-3.946 -2.764,-9.66 -5.214,-17.13l6.42 -4.474 0.129 -2.947c1.263,-4.4 0.006,-5.161 2.166,-7.834 -0.203,-4.693 0.329,-7.53 4.472,-10.18 5.916,-10.399 20.244,-13.723 30.676,-7.816 7.917,1.051 9.996,9.267 12.097,16.234 0.266,0.368 0.446,0.856 0.595,1.222l1.622 6.736c2.692,-0.466 4.54,-1.087 7.03,0.884l0.213 -3.341 -2.466 -1.983 -3.31 -1.17 -2.859 -12.108 -9.69 -9.849c-6.605,-1.767 -7.814,-3.086 -15.073,-3.395l-10.858 2.501c-11.046,6.844 -15.563,12.706 -17.877,25.96 -0.913,10.457 -6.423,7.179 -15.704,8.592 -6.28,-1.912 -0.777,-42.309 0.21,-48.949 33.328,-8.207 43.714,4.124 52.254,4.971l2.733 -2.678 0.669 -13.34c0.378,-5.836 1.778,-10.335 -4.005,-11.558 3.401,2.911 2.153,1.561 1.22,2.889z"/>
   <path class="fil6" d="M201.925 273.867l1.962 -9.611c1.77,-10.885 -1.551,-9.633 7.647,-13.746 4.915,-2.198 10.324,-4.514 14.709,-1.23 2.859,2.142 0.408,-0.19 1.396,2.452 0.056,0.152 0.157,0.504 0.217,0.669 2.418,6.718 2.371,4.687 2.416,10.294 0.056,6.843 -0.531,13.634 0.144,20.509 -1.909,26.817 -0.445,66.159 -0.355,93.691 0.035,10.832 6.908,46.944 -0.378,53.968 -5.165,4.977 -0.049,2.842 -0.266,7.704 -0.186,4.158 -1.292,0.517 -5.705,3.702l2.233 4.156 -8.744 2.303c-1.511,-5.887 5.619,-7.384 -2.338,-9.034 8.314,9.874 -12.627,1.598 -14.665,2.636 1.879,3.448 24.636,14.701 30.243,18.55 10.161,6.975 16.601,10.642 25.263,19.74 9.494,-13.296 43.002,-27.212 46.933,-33.805l-4.733 -1.063c4.163,-5.471 0.672,-1.346 1.806,-4.422 2.211,-6.003 2.428,1.235 4.71,-3.835l-8.8 3.737c-11.362,-9.571 -0.559,-0.739 -14.157,-4.092 5.591,-19.799 -13.473,-20.408 2.842,-34.768 -5.901,-4.834 -4.334,-19.918 -4.32,-30.12l1.184 -91.43c0.3,-17.296 -1.779,-15.234 4.062,-27.409 0.055,-0.114 0.174,-0.452 0.221,-0.556 1.821,-4.06 2.938,-1.59 6.874,-5.078 0.165,2.584 0.682,13.931 7.407,14.396 -1.857,-7.931 -4.476,-7.431 -3.623,-17.25 -4.018,-0.637 -5.43,-1.085 -10.252,0.785 -5.953,2.309 -3.14,8.273 -7.081,13.537 3.499,20.967 3.864,187.129 -24.27,198.754 -33.376,-20.424 -17.203,-202.885 -23.947,-217.789l-27.62 0.013 -1.015 33.642z"/>
   <path class="fil7" d="M360.046 211.6c1.178,3.474 4.01,9.738 6.579,11.954 6.018,5.191 4.965,3.434 4.593,11.464 -1.44,7.028 -5.569,13.685 -5.177,16.228 0.525,3.412 1.487,-1.2 0.141,2.821l-1.787 8.603c-1.078,5.784 -0.313,-1.104 -1.652,4.091 -1.564,6.065 1.122,-0.54 0.474,4.494l9.613 0.938c0.63,2.848 -0.543,4.856 2.371,6.972 5.155,3.743 -5.143,-4.113 2.344,0.609 1.506,0.949 -2.322,0.306 2.45,3.33l5.051 -5.127c-2.099,-4.781 0.379,0.981 -2.294,-2.096l-1.712 -3.045c-3.391,-3.654 -1.624,2.858 -1.623,-0.894 14.537,-6.158 1.326,-1.597 14.61,-2.36 6.196,-10.449 -1.685,-11.851 7.943,-6.604 4.191,-4.664 4.559,-5.986 3.545,-9.867 -2.337,-8.944 3.714,-1.051 4.088,-0.858l2.369 -6.544 4.036 1.212c-2.267,-16.355 -6.611,-31.852 -7.944,-49.049 -1.569,-20.251 -0.31,-34.459 -0.008,-54.141 -2.93,3.287 -4.247,15.545 -4.42,19.837 -1.268,31.479 -1.32,11.56 -12.226,18.596 -2.121,1.369 -5.992,4.602 -5.804,6.962 0.213,2.683 4.947,4.469 7.006,7.177 3.097,4.075 -0.335,1.565 -5.964,6.853 9.318,3.877 -4.542,-0.67 5.363,6.489l-8.131 -0.551c0.179,7.032 -1.083,5.174 -4.79,6.033 -3.561,0.824 -4.247,2.763 -3.746,5.039 -3.811,-5.402 -7.436,-6.532 -15.298,-8.566z"/>
   <path class="fil8" d="M455.494 308.948c-3.297,1.592 -2.039,1.104 -3.158,6.054 -2.505,11.086 -13.426,36.861 -19.936,45.563 -3.537,13.68 -27.131,38.724 -37.53,48.411 -14.227,13.255 -32.051,27.902 -50.41,36.409 -3.374,3.782 -63.443,31.111 -88.57,54.914 -1.811,-0.633 -21.707,-15.611 -24.804,-17.91 -4.491,-3.334 -23.989,-14.834 -25.378,-16.266l-34.147 -17.735c-2.059,4.122 -4.343,0.033 -1.416,4.784l-5.761 -0.332c9.984,7.879 34.94,19.186 47.662,26.602 7.352,4.284 42.259,31.176 43.212,31.426 1.916,-0.673 25.222,-18.801 29.35,-21.827 41.815,-30.656 105.811,-45.104 147.336,-112.521 8.273,-13.432 32.387,-59.772 29.359,-73.737 -0.719,3.92 -2.039,7.083 -5.809,6.165z"/>
   <path class="fil9" d="M243.211 63.287l9.719 -0.235c-5.58,3.858 -2.591,4.072 -10.231,4.952l0.512 -4.717zm30.954 -3.929c-7.806,0.886 -37.274,1.502 -40.217,-3.011 5.078,-3.237 40.165,-2.682 45.497,-0.157 -1.72,3.345 1.721,2.373 -5.28,3.168zm-6.232 -13.254l-2.239 0.537c-0.924,5.581 0.188,1.13 -2.783,3.599 -4.802,1.175 -7.856,0.744 -13.012,1.713 -3.123,-2.742 -3.087,-3.644 -4.495,-8.177 -5.148,3.991 -1.537,3.096 -10.321,3.222 -10.457,0.15 -31.025,-1.187 -37.396,-0.152 7.624,3.898 21.13,0.705 30.309,1.905 5.201,0.267 12.997,-1.025 16.754,1.968l-14.665 1.349 0.405 10.757 2.836 0.86 3.851 0.818 2.704 10.044c0.204,5.387 0.843,11.133 -1.672,15.24l0.828 -0.495c-0.38,9.955 -2.606,44.712 -8.293,50.843l-1.214 6.033 -8.127 0.545c-1.98,1.94 1.729,-0.339 -2.378,1.343 -2.318,0.949 -1.263,0.041 -4.458,1.569l6.234 0.154c9.397,0.993 19.106,-1.9 28.826,-1.636 10.023,0.271 20.497,0.285 30.626,1.665 2.325,-2.567 2.693,0.148 0.241,-3.457l-8.293 0.191 5.833 -3.133c-0.092,-3.042 0.815,-1.015 -0.288,-3.755 -1.469,-3.65 0.358,-1.121 -2.814,-3.545l0.156 4.417c-6.762,6.874 -18.537,5.268 -27.802,5.264l6.806 -2.609c5.212,-4.569 12.607,-4.314 16.706,-11.658l-1.29 -1.043c-8.253,4.179 -25.114,15.687 -34.365,14.807 0.716,-6.646 1.49,-10.157 7.966,-12.108 0.913,-0.63 28.07,-13.956 28.812,-14.195 -1.057,-3.224 2.321,-2.706 -2.307,-2.845 -5.225,2.753 -17.014,9.837 -22.131,10.488 -2.851,2.239 -6.026,4.763 -9.449,4.688 0.685,-4.446 0.939,-9.194 2.576,-12.539l2.911 -0.072c3.322,-2.869 9.28,-4.772 13.621,-7.059 2.243,-1.183 4.983,-2.469 7.251,-3.876 4.65,-2.885 4.399,-5.082 5.748,-1.409 0.298,-0.366 0.542,-1.49 0.606,-1.278 0.059,0.197 0.444,-0.896 0.494,-1.208l0.33 -2.069c-0.448,-3.958 -1.732,-2.27 -1.89,-2.361 -4.539,2.357 -8.113,5.978 -14.447,9.035 -3.172,1.532 -11.888,5.206 -13.573,6.828 -0.098,-2.046 -0.134,-4.757 0.273,-6.803 1.196,-6.02 -0.229,-2.957 2.807,-5.368l12.323 -6.587 2.316 -1.769 2.151 -1.002c1.996,-1.625 0.536,0.022 1.51,-3.562l-20.184 8.62c0.274,-4.112 0.133,-9.088 2.611,-12.233l23.673 -11.664c2.53,-4.575 1.127,-0.971 0.274,-5.611 -4.256,5.065 -12.68,9.322 -19.679,11.422l-5.704 2.093 -1.399 -10.511 1.969 -1.425c10.336,-4.522 12.485,-6.943 25.019,-7.377l-0.272 3.79c5.245,-1.146 0.818,0.932 5.149,-3.242l5.081 -0.451c5.111,-1.913 3.92,-6.957 2.323,-11.913l-15.45 -1.569c2.912,-1.592 75.892,-3.825 87.67,-4.971 27.263,-2.652 51.565,-6.942 77.964,-12.962l4.815 -0.369 7.67 27.592c2.53,0 1.875,0.488 1.02,-2.095 -4.009,-11.331 -4.477,-18.183 -6.706,-29.343 -6.618,0.578 -13.338,3.391 -19.951,5.104 -33.471,8.668 -122.421,15.937 -151.001,13.003z"/>
   <path class="fil10" d="M158.108 37.718c5.987,3.07 38.318,3.545 47.599,4.109 8.328,0.507 17.271,0.669 25.623,0.616 15.157,-0.097 9.467,-0.392 19.66,-7.072l4.924 -5.234 12.612 11.609c8.131,1.068 42.24,1.036 48.464,-1.462l-9.471 -0.822c-0.127,-2.248 -4.468,1.09 1.524,-3.514 1.638,-1.258 0.089,-0.784 2.523,-0.576 2.691,0.23 3.943,1.984 6.142,2.637l-1.906 -2.254c-0.05,-0.099 -0.242,-0.383 -0.271,-0.484 -0.591,-2.014 -2.915,2.006 0.98,-3.352 -5.49,0.06 -6.396,0.358 -9.226,-1.62l8.706 1.138c-5.327,-5.138 -2.138,1.272 -4.151,-4.37 -23.991,0 -47.982,0 -71.973,0 -11.793,0 -23.586,-0.007 -35.379,0 -12.34,0.007 -21.822,-1.22 -34.166,-1.22 -4.485,3.482 -6.851,1.08 -10.106,3.279 -0.226,0.153 -0.7,0.74 -0.715,0.917 -0.325,3.763 -4.717,-3.536 0.495,0.944 0.422,0.362 2.962,1.008 4.193,1.27 -4.133,3.064 -4.716,0.523 0.894,4.333l-6.975 1.128z"/>
   <path class="fil11" d="M274.572 252.235l-1.068 6.635c-0.204,3.847 0.045,6.58 -0.067,10.057 -0.316,9.865 0.067,2.598 -1.442,5.222 -0.025,0.045 -0.184,0.265 -0.205,0.31 -0.021,0.045 -0.118,0.303 -0.134,0.35l-0.804 3.021c-0.155,0.396 -0.209,-0.044 -0.65,1.745 -1.657,6.719 -4.555,19.183 -3.327,25.79 0.601,3.231 1.402,1.239 1.075,3.871l-1.211 3.704c-5.035,19.602 5.045,15.453 -3.979,16.681 8.108,4.209 5.737,2.833 3.972,8.012l-2.371 14.574c-5.02,-0.811 -5.145,-0.348 -4.944,-5.408l-2.246 2.232 -0.808 99.406c27.827,-29.806 16.65,-156.349 19.134,-199.304l-0.925 3.102z"/>
   <path class="fil12" d="M324.921 441.787c-2.46,3.461 -7.685,5.435 -12.022,5.646 -4.024,0.38 -5.279,0.603 -7.275,3.853 -1.246,2.423 0.089,0.972 -2.311,2.748 -0.761,0.563 -2.333,1.187 -3.311,1.769 -4.245,2.526 -1.926,2.434 -6.553,3.031 -2.49,3.102 -13.406,10.121 -17.371,10.717 -4.092,0.716 -6.385,2.945 -8.509,5.948 -0.061,4.085 -4.03,4.673 -7.396,6.176l-4.496 2.996c-1.679,-3.628 -11.532,-9.551 -15.445,-11.431 -5.175,-1.829 -3.169,-1.395 -6.901,-4.013 -4.054,-2.844 -4.864,-0.616 -5.388,-4.68l-10.455 -7.144c-3.316,1.106 -3.193,0.112 -6.937,-1.767 -4.763,0.161 -1.43,-1.113 -4.04,1.564 1.814,6.216 -0.516,0.934 2.943,3.137 0.295,0.188 0.782,0.308 1.04,0.447l2.319 0.664c-5.517,0.316 -3.75,-0.778 -7.105,4.675 1.389,1.432 20.887,12.932 25.378,16.266 3.097,2.299 22.993,17.277 24.804,17.91 25.127,-23.803 85.196,-51.132 88.57,-54.914 0.86,-2.403 1.035,-3.777 5.807,-7.187 -2.751,1.801 -0.95,0.902 -5.96,-3.254 -0.229,-0.191 -1.414,-1.123 -1.739,-1.368 -5.002,2.73 -12.371,7.576 -17.647,8.211z"/>
   <path class="fil13" d="M80.353 365.313c6.76,12.848 22.983,33.773 34.746,43.802 7.854,6.696 37.142,31.887 45.492,31.881 2.284,1.445 3.762,2.387 5.785,3.687 4.962,3.192 2.078,-0.304 5.185,3.705l34.147 17.735c3.355,-5.453 1.588,-4.359 7.105,-4.675l-2.319 -0.664c-0.258,-0.139 -0.745,-0.259 -1.04,-0.447 -3.459,-2.203 -1.129,3.079 -2.943,-3.137 2.61,-2.677 -0.723,-1.403 4.04,-1.564 -2.868,-0.659 -0.571,-0.012 -1.441,-1.439l-21.329 -9.671 -6.099 -0.383 5.512 5.452c-6.111,0.656 -2.419,0.058 -6.011,-0.761 -0.287,-0.065 -0.613,-0.214 -0.875,-0.269 -0.24,-0.05 -0.621,-0.127 -0.826,-0.163l-1.549 -0.025c3.303,-2.783 1.321,-1.209 4.241,-5.663l-0.658 -2.92c-1.73,-3.783 -13.103,-10.398 -17.935,-10.375 -5.34,0.304 -4.52,-1.205 -9.348,-4.27 -3.47,-2.203 -4.955,-2.072 -6.914,-5.227l-5.279 -3.615 -10.707 -8.535 -2.69 -2.489c-3.658,-1.772 -4.181,-1.855 -5.43,-5.386 -0.761,-4.097 -0.942,-4.462 -5.001,-4.406l-5.367 -4.319c-7.767,0.168 -3.276,-2.842 -8.165,0.426 0.092,-0.295 0.274,-0.683 0.317,-0.871l0.425 -1.781c0.832,-6.77 -2.888,1.111 2.909,-5.638l-11.674 -13.208c-7.797,-3.062 -5.43,-1.47 -9.676,-7.964 -0.125,0.442 -0.201,1.078 -0.271,1.353 -0.058,0.225 -0.184,0.88 -0.247,1.095 -0.039,0.136 -0.165,0.573 -0.201,0.675 -0.052,0.152 0.951,2.05 -0.437,-0.732l-5.472 0.786z"/>
   <path class="fil14" d="M97.722 234.43l-0.858 4.981 9.977 6.257c-2.332,-1.64 -3.118,3.75 -4.539,7.404 4.34,2.917 12.425,-2.606 4.858,5.546 8.888,1.344 6.791,-4.271 10.106,2.579 1.962,4.053 5.324,1.88 6.444,1.547 6.041,-1.797 1.39,1.636 8.912,0.843 4.662,-0.491 7.779,-3.365 12.364,-4.892l-10.198 -6.478c2.274,-0.596 4.825,-7.861 4.425,-11.251 -0.783,-6.654 -0.744,-9.667 0.995,-19.447 -2.497,-1.579 -1.077,-1.945 -4.818,-0.968 -6.458,1.686 -1.53,1.192 -1.924,2.61l-0.212 1.094c-2.376,10.415 1.767,0.075 0.526,3.492 -5.993,1.16 -3.827,3.148 -8.384,2.183 -7.257,-1.535 -1.667,0.685 -1.108,-3.121 1.204,-8.203 -3.739,-2.527 -3.803,-14.166 -4.654,0.651 -1.091,2.138 -4.343,0.994 -0.074,-0.026 -2.721,-2.394 -2.862,-2.587 -7.503,-10.203 5.628,2.625 -2.021,-6.574 -5.454,-6.56 -2.591,3.584 -4.868,-5.605 -1.069,-4.311 -0.278,-6.854 -1.422,-11.964l-7.247 47.523z"/>
   <path class="fil15" d="M236.063 250.52l0.072 84.608c7.414,-0.365 5.271,5.647 13.858,0.528 2.88,6.902 0.265,9.196 0.184,12.582 4.842,1.136 -1.639,0.297 1.941,-0.312 2.126,-0.362 -1.709,-1.085 2.189,-0.316 -3.522,7.448 -1.336,-0.655 -4.673,6.6l-0.76 1.64c0.403,-0.044 2.861,-0.886 3.027,-0.971 2.354,-1.203 0.736,-0.759 0.549,-0.754 0.19,9.657 -0.166,16.969 -0.486,25.992 -0.081,2.292 0.151,19.386 1.284,22.957 -0.437,6.839 1.055,4.944 -2.618,8.445l4.29 0.955 -0.281 -163.753c-2.394,2.489 -1.181,9.644 -13.5,4.919l-0.495 3.799c-0.557,1.819 0.764,0.305 -1.784,2.846 -1.631,-3.503 -2.051,-5.685 -1.077,-9.243l-1.72 -0.522z"/>
   <path class="fil16" d="M77.604 122.225c-2.321,5.918 1.284,16.797 2.12,23.505 2.17,17.402 -0.671,60.026 -3.866,76.002 -3.03,15.149 -11.705,48.212 -17.807,62.712 -2.153,5.117 -8.355,13.808 -7.348,18.339 -2.832,5.369 -1.563,5.765 3.9,6.172l0.079 -3.412c4.572,1.106 3.995,-1.657 5.721,-6.397 1.406,-3.86 3.499,-7.609 4.574,-10.787l0.352 -4.079c4.537,-1.742 1.441,1.262 2.677,-3.414 0.432,-1.634 0.143,-1.344 0.7,-3.019l2.124 -6.359c2.279,-13.479 6.173,-18.314 6.669,-23.512 0.314,-3.296 1.176,-6.474 1.636,-7.412 5.501,-18.918 7.388,-38.997 8.94,-58.566 1.894,-14.45 -1.573,-56.005 -7.761,-68.357 -4.085,1.484 0.837,1.525 -2.618,-0.545 -0.201,-0.121 -1.483,-1.74 -1.488,-1.744 2.723,3.53 1.377,5.148 1.396,10.873z"/>
   <path class="fil17" d="M65.188 18.497c1.991,0.802 4.596,2.523 4.808,2.611 2.604,1.084 0.617,0.249 2.778,0.877 1.943,0.563 -0.485,-1.355 4.185,1.154 13.25,4.705 69.353,16.614 81.149,14.579l6.975 -1.128c-5.61,-3.81 -5.027,-1.269 -0.894,-4.333 -1.231,-0.262 -3.771,-0.908 -4.193,-1.27 -5.212,-4.48 -0.82,2.819 -0.495,-0.944 0.015,-0.177 0.489,-0.764 0.715,-0.917 3.255,-2.199 5.621,0.203 10.106,-3.279 -19.616,0.016 -40.999,-4.348 -58.935,-8.158 -9.462,-2.011 -17.231,-4.548 -25.934,-7.006 -7.865,-2.22 -18.105,-7.5 -25.635,-8.016l5.37 15.83z"/>
   <path class="fil8" d="M155.682 447.961l-1.331 -3.821c3.239,0.136 0.413,0.344 1.928,-0.725 3.905,-2.755 -1.806,-1.063 4.312,-2.419 -8.35,0.006 -37.638,-25.185 -45.492,-31.881 -11.763,-10.029 -27.986,-30.954 -34.746,-43.802l-0.186 -2.133c-3.085,-1.705 -2.232,-2.092 -3.494,-6.202 -2.808,-2.008 -3.9,-5.873 -6.341,-9.555 -0.709,-1.808 -2.925,-6.296 -4.191,-8.886 -1.608,-3.291 -1.84,-5.871 -3.356,-9.767 -1.97,-5.063 -4.383,-16.746 -8.182,-19.815 -5.463,-0.407 -6.732,-0.803 -3.9,-6.172 -7.451,4.853 9.638,39.086 12.457,46.17 13.537,34.019 60.984,88.914 92.522,99.008z"/>
   <path class="fil16" d="M430.665 116.402c-3.469,4.2 -3.061,9.941 -4.559,15.16l-3.245 39.589c-0.331,7.493 -1.457,5.371 -0.529,9.265 0.695,2.918 1.34,5.565 0.37,8.908 1.369,2.007 0.378,3.95 0.638,6.873l4.042 25.107c0.91,6.31 2.579,10.581 3.433,16.466 0.944,6.505 1.013,6.984 3.181,14.794l15.111 44.423c2.257,5.12 2.65,1.276 1.811,7.888l1.902 -1.859 2.674 5.932c3.77,0.918 5.09,-2.245 5.809,-6.165 -13.753,-28.536 -22.844,-53.67 -27.249,-84.388 -2.331,-16.254 -3.736,-33.45 -5.051,-49.94 -0.879,-11.016 6.858,-44.582 4.848,-49.889l0.902 -3.406c-1.843,0.172 -1.813,0.873 -2.465,1.077 -5.012,1.566 5.124,3.129 -1.623,0.165z"/>
   <path class="fil18" d="M401.765 385.501l-1.973 2.705c-4.082,5.059 -8.283,10.755 -13.674,13.566l-2.053 2.262 -6.339 5.032c-2.147,3.446 -6.087,6.294 -10.191,6.865 -6.013,0.9 -2.453,0.529 -3.432,2.224 -0.05,3.796 0.01,2.291 -4.221,4.644 -2.143,1.192 -4.228,2.281 -6.345,3.488 -3.566,2.034 -8.631,5.148 -10.969,7.289 0.325,0.245 1.51,1.177 1.739,1.368 5.01,4.156 3.209,5.055 5.96,3.254 -4.772,3.41 -4.947,4.784 -5.807,7.187 18.359,-8.507 36.183,-23.154 50.41,-36.409 10.399,-9.687 33.993,-34.731 37.53,-48.411 -4.12,-0.829 -0.02,-0.935 -4.038,1.315l-1.541 1.242c-2.079,-3.528 -0.729,-2.026 -6.033,-4.129 -2.579,2.459 -6.785,9.298 -9.47,12.869 -2.507,3.333 -9.095,10.677 -9.553,13.639z"/>
   <path class="fil19" d="M220.801 149.779c-4.277,2.136 -25.44,2.187 -32.18,2.117 -11.383,-0.118 -8.887,-0.245 -10.058,3.263 6.605,0 13.218,0.036 19.822,0.013 7.028,-0.025 12.334,-0.872 18.424,-1.188 13.139,-0.682 24.037,-1.258 37.821,-1.265 1.274,-3.987 -0.843,-2.796 1.902,-2.26 1.908,6.669 1.352,14.04 0.634,20.906 5.542,-3.241 6.917,-6.399 13.737,-8.219 5.267,-1.407 16.745,-1.291 22.644,-1.282 22.914,0.036 19.064,-0.076 38.081,7.785l1.841 -17.855c-9.191,-0.247 -18.489,0.142 -27.697,-0.319 -5.67,-0.284 -21.354,-2.46 -25.519,-1.667 -10.129,-1.38 -20.603,-1.394 -30.626,-1.665 -9.72,-0.264 -19.429,2.629 -28.826,1.636z"/>
   <path class="fil20" d="M66.804 56.879c0.343,-1.635 3.837,-9.684 4.861,-12.994 1.803,-5.828 2.101,-11.165 3.698,-16.842 4.722,1.18 10.384,2.831 12.993,6.118 5.562,5.656 98.649,17.393 109.331,13.685 6.371,-1.035 26.939,0.302 37.396,0.152 8.784,-0.126 5.173,0.769 10.321,-3.222 1.408,4.533 1.372,5.435 4.495,8.177l-0.956 -7.657c-0.128,-3.076 3.19,-4.191 5.683,-8.683l-3.636 -0.242c-10.193,6.68 -4.503,6.975 -19.66,7.072 -8.352,0.053 -17.295,-0.109 -25.623,-0.616 -9.281,-0.564 -41.612,-1.039 -47.599,-4.109 -11.796,2.035 -67.899,-9.874 -81.149,-14.579l-3.61 0.611c-0.348,6.667 -5.169,26.967 -8.987,31.422l2.442 1.707z"/>
   <path class="fil21" d="M311.84 27.067c2.013,5.642 -1.176,-0.768 4.151,4.37l-8.706 -1.138c2.83,1.978 3.736,1.68 9.226,1.62 -3.895,5.358 -1.571,1.338 -0.98,3.352 0.029,0.101 0.221,0.385 0.271,0.484l1.906 2.254c-2.199,-0.653 -3.451,-2.407 -6.142,-2.637 -2.434,-0.208 -0.885,-0.682 -2.523,0.576 -5.992,4.604 -1.651,1.266 -1.524,3.514l9.471 0.822c6.952,1.727 68.782,-3.849 73.259,-7.667l-3.828 -1.466c6.245,-2.453 4.244,1.197 7.83,-2.521 0.083,-0.085 0.264,-0.388 0.353,-0.476l3.933 -2.186 -4.161 -4.272 5.515 -0.846c-7.778,0.301 -2.612,-0.195 -5.08,-2.323 -12.657,1.948 -25.815,5.629 -39.057,6.088 -14.177,0.493 -29.682,2.452 -43.914,2.452z"/>
   <path class="fil9" d="M313.914 220.246c2.505,2.378 1.556,2.606 3.581,4.921 2.88,3.293 2.372,0.973 5.263,4.241l2.245 1.175 -2.171 2.352c11.896,-2.579 15.131,-2.901 23.453,6.047l1.328 0.368c1.671,9.731 2.697,17.061 -4.844,24.94 -12.734,13.307 -33,8.915 -40.344,-9.59 -7.1,-17.887 3.111,-21.046 1.799,-27.55l-1.821 -4.772 -3.049 -6.372 -0.129 2.947 2.123 12.001 -3.756 4.329 0.427 5.274c-1.862,-0.655 -0.223,-3.203 -2.685,1.216l0.776 3.152c-0.853,9.819 1.766,9.319 3.623,17.25l2.613 4.345c10.836,6.016 11.544,11.705 27.536,9.324 11.41,-1.698 15.066,-9.901 21.882,-16.181 0.753,-13.619 2.734,-6.243 8.33,-12.357 7.114,-7.77 -3.769,-5.251 11.124,-12.288 0.372,-8.03 1.425,-6.273 -4.593,-11.464 -2.569,-2.216 -5.401,-8.48 -6.579,-11.954l-1.821 0.311 -0.213 3.341c4.623,6.197 -1.25,9.212 -5.066,12.168 6.153,-0.328 2.788,-0.479 6.456,-1.854 4.383,-1.644 3.581,-1.19 5.194,1.966l2.001 1.1 1.243 1.748 -4.54 4.256 -3.846 -2.918 -3.583 -0.223c1.858,3.67 5.235,4.446 2.287,12.649l-7.189 0.788 3.89 -3.84 -0.585 -3.829c-3.393,0.969 3.961,-1.869 -2.574,2.184 -5.659,3.51 4.37,-0.504 -1.881,0.76l-2.092 -3.387 3.401 -1.94 -16.003 -6 9.773 -2.962c1.965,-4.616 0.444,-3.537 3.634,-6.264l3.209 -0.709c-0.595,2.83 1.108,0.726 -2.248,3.61l0.303 0.896 4.483 -3.673 -3.297 -5.41 -1.622 -6.736c-0.149,-0.366 -0.329,-0.854 -0.595,-1.222 0.232,12.551 -7.315,22.696 -20.815,20.605 -10.632,-1.648 -17.419,-22.908 0.97,-21.272 -2.933,-1.758 -5.95,-1.066 -9.828,-0.755 -7.192,6.546 -4.71,6.225 -5.178,15.258z"/>
   <path class="fil22" d="M163.002 270.873l0.437 -7.337c-5.237,-3.658 -2.838,0.965 -4.327,-4.778 3.029,-4.038 6.501,-2.824 11.02,-3.304l0.129 -10.19c2.15,-2.662 6.245,-1.567 9.355,-0.875l0.144 9.568 11.241 3.383 -0.952 4.491 -3.884 1.334 0.324 7.536 12.192 0.501 -0.343 -34.258 -1.176 0.349 -44.428 -0.212c0.343,14.475 -1.629,12.596 2.729,15.407 -0.868,1.5 -0.099,0.972 -1.952,-0.144 -0.535,2.531 -1.299,5.403 -1.197,8.087 0.441,11.653 3.446,7.795 5.796,8.208 3.769,0.661 -2.119,-1.108 2.494,0.665 8.976,3.45 -5.403,-5.128 2.398,1.569z"/>
   <path class="fil23" d="M71.424 88.06l8.89 25.581c6.188,12.352 9.655,53.907 7.761,68.357 2.243,-2.917 2.563,2.479 2.004,-4.83 6.082,4.165 -4.094,-0.245 2.059,2.46 0.061,0.027 0.33,0.098 0.399,0.11l5.691 -0.977c-1.364,-5.686 -2.037,-13.634 -0.255,-19.604 2.45,-13.151 -8.674,-62.389 -16.019,-71.966 -7.478,-1.785 -4.096,-2.003 -10.53,0.869z"/>
   <path class="fil24" d="M237.312 398.512l1.216 -1.988c0.145,-0.201 0.539,-0.73 0.685,-0.93 0.144,-0.198 0.522,-0.564 0.721,-0.89 2.015,6.076 0.456,-1.111 2.47,2.208 1.419,2.337 3.753,-3.207 -0.063,3.279l3.655 -2.872 0.581 7.427c-0.556,-1.906 3.003,-2.164 4.038,-2.329 -4.421,6.656 -4.442,3.201 0.806,4.505l1.827 -3.848c-1.133,-3.571 -1.365,-20.665 -1.284,-22.957 0.32,-9.023 0.676,-16.335 0.486,-25.992 0.187,-0.005 1.805,-0.449 -0.549,0.754 -0.166,0.085 -2.624,0.927 -3.027,0.971l0.76 -1.64c3.337,-7.255 1.151,0.848 4.673,-6.6 -3.898,-0.769 -0.063,-0.046 -2.189,0.316 -3.58,0.609 2.901,1.448 -1.941,0.312 0.081,-3.386 2.696,-5.68 -0.184,-12.582 -8.587,5.119 -6.444,-0.893 -13.858,-0.528l1.177 63.384z"/>
   <path class="fil5" d="M307.18 211.278l-0.19 5.825c0.692,4.188 1.88,7.93 5.584,10.143l1.559 1.959c-8.57,6.957 -9.453,15.136 -5.004,25.19 4.946,11.176 12.893,10.597 22.538,11.185l5.095 -2.472 5.257 -10.351c0.619,-11.887 -1.133,-16.894 -14.209,-15.536 -2.919,2.785 -4.012,2.903 -3.38,7.009l0.614 2.657c6.554,3.104 2.755,-0.882 5.846,4.167l-0.209 2.992 -7.828 -0.412c-3.688,-3.211 -2.384,-0.567 -4.125,-5.015 -0.687,-2.985 -2.947,-8.118 0.631,-10.353l3.473 -5.331 2.171 -2.352 -2.245 -1.175c-6.231,5.016 -11.801,12.211 -7.594,21.094 2.087,4.405 6.346,6.686 11.354,6.739 9.116,0.096 7.849,-3.525 7.579,-10.729 -6.431,-3.791 -3.46,2.088 -6.348,-3.434 13.76,-9.86 15.669,25.957 -7.211,18.27 -5.64,-1.895 -9.596,-9.362 -10.501,-14.739 -1.96,-11.659 5.316,-12.007 7.825,-18.171l-5.268 -5.413c-7.113,-10.945 0.226,-25.091 12.644,-25.504 15.219,-0.504 18.873,20.266 3.604,21.217 0.097,-0.292 0.354,-0.64 0.47,-0.794l1.713 -2.017c9.173,-9.971 -3.69,-17.176 -11.933,-10.939 3.878,-0.311 6.895,-1.003 9.828,0.755l0.34 0.676 1.216 5.186 -5.977 0.997 0.928 7.728c7.646,4.501 8.518,1.072 14.465,-2.311 4.348,-10.742 4.156,-22.58 -10.081,-24.423 -11.597,-1.501 -21.414,6.404 -22.631,17.682z"/>
   <path class="fil25" d="M220.353 233.518c11.06,-0.957 26.295,-0.245 37.814,-0.213 8.829,0.024 27.495,-3.349 32.902,2.168l-0.024 -11.792c-12.296,-1.454 -142.321,-1.343 -146.139,0.441 9.822,5.434 59.19,-0.162 70.08,2.126 7.01,1.474 -0.696,1.497 4.742,0.587 9.667,-1.619 6.694,4.836 6.697,4.868l-6.072 1.815z"/>
   <path class="fil26" d="M390.249 32.617c-4.477,3.818 -66.307,9.394 -73.259,7.667 -6.224,2.498 -40.333,2.53 -48.464,1.462l-0.593 4.358c28.58,2.934 117.53,-4.335 151.001,-13.003 6.613,-1.713 13.333,-4.526 19.951,-5.104 2.229,11.16 2.697,18.012 6.706,29.343l1.997 -0.311 -4.015 -15.316c-1.2,-2.898 -2.117,-6.119 -2.645,-9.283 -1.111,-6.66 0.539,-8.631 -4.525,-9.66 -6.645,3.774 -38.809,10.562 -46.154,9.847z"/>
   <path class="fil27" d="M394.811 18.527c2.468,2.128 -2.698,2.624 5.08,2.323l-5.515 0.846 4.161 4.272 -3.933 2.186c-0.089,0.088 -0.27,0.391 -0.353,0.476 -3.586,3.718 -1.585,0.068 -7.83,2.521l3.828 1.466c7.345,0.715 39.509,-6.073 46.154,-9.847 4.651,-2.249 8.403,-1.789 12.312,-5.621 0.651,-5.545 2.703,-9.652 5.009,-14.482 -4.289,0.331 -22.759,6.975 -28.27,8.69 -8.926,2.778 -21.374,5.661 -30.643,7.17z"/>
   <path class="fil28" d="M256.978 282.049l0.193 66.982 2.246 -2.232c-0.201,5.06 -0.076,4.597 4.944,5.408l2.371 -14.574c1.765,-5.179 4.136,-3.803 -3.972,-8.012 9.024,-1.228 -1.056,2.921 3.979,-16.681l1.211 -3.704c0.327,-2.632 -0.474,-0.64 -1.075,-3.871 -1.228,-6.607 1.67,-19.071 3.327,-25.79 0.441,-1.789 0.495,-1.349 0.65,-1.745l0.804 -3.021c0.016,-0.047 0.113,-0.305 0.134,-0.35 0.021,-0.045 0.18,-0.265 0.205,-0.31 1.509,-2.624 1.126,4.643 1.442,-5.222 0.112,-3.477 -0.137,-6.21 0.067,-10.057 -2.192,-0.6 -1.853,2.124 -3.918,7.021 -0.048,0.114 -0.237,0.414 -0.286,0.526 -0.049,0.112 -0.251,0.417 -0.297,0.528l-0.445 1.114c-1.151,5.321 2.636,3.465 0.698,1.775 -5.71,1.827 -2.512,4.995 -2.51,5.185l-0.215 3.711c-0.006,0.074 -0.009,0.391 -0.021,0.465l-0.53 1.49c-0.049,0.085 -0.251,0.386 -0.308,0.466l-4.752 4.656c-1.262,-1.729 -2.977,-2.842 -3.942,-3.758z"/>
   <path class="fil23" d="M178.563 155.159l0.281 0.964 -0.617 8.41 2.1 4.628c12.863,-8.207 22.562,-7.453 37.581,-7.318 12.268,0.11 19.963,-1.074 29.468,4.032 0.986,0.53 2.186,1.271 3.136,1.888l4.07 2.717c0.543,-5.24 0.409,-11.905 0.048,-17.761 -13.784,0.007 -24.682,0.583 -37.821,1.265 -6.09,0.316 -11.396,1.163 -18.424,1.188 -6.604,0.023 -13.217,-0.013 -19.822,-0.013z"/>
   <path class="fil29" d="M53.956 59.941c5.842,2.846 15.649,21.081 17.468,28.119 6.434,-2.872 3.052,-2.654 10.53,-0.869 -3.104,-10.892 -11.152,-20.334 -15.15,-30.312l-2.442 -1.707c3.818,-4.455 8.639,-24.755 8.987,-31.422l3.61 -0.611c-4.67,-2.509 -2.242,-0.591 -4.185,-1.154 -2.161,-0.628 -0.174,0.207 -2.778,-0.877 -0.212,-0.088 -2.817,-1.809 -4.808,-2.611 -1.471,2.793 -3.821,16.895 -4.98,21.585 -0.48,1.944 -2.692,8.007 -3.752,9.863 -4.631,8.114 -1.664,-1.047 -2.5,9.996z"/>
   <path class="fil30" d="M442.928 302.789c0.286,15.597 -15.396,42.016 -22.14,56.204 5.304,2.103 3.954,0.601 6.033,4.129l1.541 -1.242c4.018,-2.25 -0.082,-2.144 4.038,-1.315 6.51,-8.702 17.431,-34.477 19.936,-45.563 1.119,-4.95 -0.139,-4.462 3.158,-6.054l-2.674 -5.932 -1.902 1.859c-5.127,-0.919 -3.028,-1.725 -6.056,1.479l-1.934 -3.565z"/>
   <path class="fil15" d="M253.426 179.117c-7.042,4.895 -3.484,1.229 -3.727,5.765 -5.004,-1.679 -2.96,-2.324 -7.092,-4.237 -2.808,-1.299 -3.474,-0.492 -4.357,1.416l-1.833 -6.581 -0.299 44.153 18.405 0.055 -1.097 -40.571z"/>
   <path class="fil31" d="M178.227 164.533c-0.291,4.114 0.346,6.148 2.204,9.404 20.153,-11.045 9.11,-7.786 39.918,-8.098 15.755,-0.159 26.184,-1.144 35.13,12.699 12.931,-8.113 0.517,-12.142 34.408,-12.452 18.869,-0.173 24.135,-3.109 40.465,7.367l1.276 -3.804c-19.017,-7.861 -15.167,-7.749 -38.081,-7.785 -5.899,-0.009 -17.377,-0.125 -22.644,1.282 -6.82,1.82 -8.195,4.978 -13.737,8.219 0.718,-6.866 1.274,-14.237 -0.634,-20.906 -2.745,-0.536 -0.628,-1.727 -1.902,2.26 0.361,5.856 0.495,12.521 -0.048,17.761l-4.07 -2.717c-0.95,-0.617 -2.15,-1.358 -3.136,-1.888 -9.505,-5.106 -17.2,-3.922 -29.468,-4.032 -15.019,-0.135 -24.718,-0.889 -37.581,7.318l-2.1 -4.628z"/>
   <path class="fil22" d="M88.075 181.998c-1.552,19.569 -3.439,39.648 -8.94,58.566l4.394 -1.482c0.524,1.505 0.792,0.878 1.631,4.24l1.393 -3.608c0.006,-0.091 -0.004,-0.422 -0.005,-0.51l-0.075 -0.991c-0.012,-0.076 -0.078,-0.394 -0.094,-0.467 -0.016,-0.071 -0.109,-0.37 -0.129,-0.439l-0.621 -5.103c0.394,0.215 0.837,0.272 1.041,0.854l1.9 1.39c2.774,1.397 -0.953,2.831 2.704,0.428 3.659,-13.114 11.879,-65.963 6.699,-75.719 -1.782,5.97 -1.109,13.918 0.255,19.604l-5.691 0.977c-0.069,-0.012 -0.338,-0.083 -0.399,-0.11 -6.153,-2.705 4.023,1.705 -2.059,-2.46 0.559,7.309 0.239,1.913 -2.004,4.83z"/>
   <path class="fil32" d="M332.852 176.481c-2.767,2.847 -3.154,2.18 -8.619,1.125l-8.955 -1.594c-7.744,-2.256 -24.277,-0.641 -32.059,0.505 -1.057,5.746 -2.029,2.899 -2.699,10.289 -0.363,3.998 -0.68,8.256 -0.847,12.278 -0.16,3.83 -0.465,8.586 -0.207,12.347 0.647,9.409 2.759,4.381 0.922,9.028 9.281,-1.413 14.791,1.865 15.704,-8.592 -7.313,1.392 -0.031,1.038 -7.203,4.63 -3.988,-1.464 -1.688,0.386 -4.139,-2.315l-1.493 -12.329c-0.675,-7.625 -1.061,-1.815 1.75,-6.948 2.179,-3.979 -2.033,0.999 1.528,-4.143 7.349,-3.54 2.95,0.924 5.727,-1.304 4.386,-3.52 1.987,-6.149 10.605,-6.399l6.547 -0.007c4.496,0.08 0.765,1.381 3.902,-0.273l0.653 3.128 10.858 -2.501c6.494,-4.235 9.895,0.904 10.758,-9.603l-2.733 2.678z"/>
   <path class="fil30" d="M54.603 308.955c3.799,3.069 6.212,14.752 8.182,19.815 1.516,3.896 1.748,6.476 3.356,9.767 1.266,2.59 3.482,7.078 4.191,8.886l5.639 0.981c-0.453,-4.034 -1.067,-2.539 3.489,-10.236 -2.201,-2.471 -7.973,-19.023 -9.2,-23.16 -3.979,-13.413 1.507,-15.934 4.701,-28.079l-4.343 4.941c0.026,0.096 0.145,0.773 0.163,0.627 0.019,-0.145 0.148,0.416 0.133,0.63 -3.394,-0.451 -4.05,-1.887 -5.937,-4.768 -1.075,3.178 -3.168,6.927 -4.574,10.787 -1.726,4.74 -1.149,7.503 -5.721,6.397l-0.079 3.412z"/>
   <path class="fil22" d="M422.613 248.742c7.195,2.39 9.367,-1.447 4.043,4.659 5.501,-2.865 2.404,0.15 5.074,-3.891l2.266 3.054c-2.168,-7.81 -2.237,-8.289 -3.181,-14.794 -0.854,-5.885 -2.523,-10.156 -3.433,-16.466l-4.042 -25.107c-0.26,-2.923 0.731,-4.866 -0.638,-6.873l-5.178 1.423c-0.202,-0.359 -1.412,-2.721 -1.55,-2.983l-3.101 -6.974c1.004,26.23 5.509,43.035 9.74,67.952z"/>
   <path class="fil22" d="M144.961 233.747l75.392 -0.229 6.072 -1.815c-0.003,-0.032 2.97,-6.487 -6.697,-4.868 -5.438,0.91 2.268,0.887 -4.742,-0.587 -10.89,-2.288 -60.258,3.308 -70.08,-2.126l0.055 9.625z"/>
   <path class="fil33" d="M305.992 197.992c-4.143,2.65 -4.675,5.487 -4.472,10.18 3.053,1.69 1.701,1.994 5.66,3.106 1.217,-11.278 11.034,-19.183 22.631,-17.682 14.237,1.843 14.429,13.681 10.081,24.423 2.55,1.431 -2.992,4.584 -5.026,5.561 -1.806,0.866 -3.213,1.184 -5.393,0.634 -5.443,-1.373 -3.412,-2.053 -4.046,-3.884l-0.928 -7.728c2.193,-3.071 -2.739,-1.492 4.174,-2.916 -5.868,1.511 -1.914,2.165 -6.218,-0.389 0.399,-0.08 2.52,-0.19 2.867,-0.317 3.609,-1.323 1.462,0.163 3.938,-2.561l-0.34 -0.676c-18.389,-1.636 -11.602,19.624 -0.97,21.272 13.5,2.091 21.047,-8.054 20.815,-20.605 -2.101,-6.967 -4.18,-15.183 -12.097,-16.234 -7.516,0.212 -11.359,-3.683 -19.752,0.425 -2.519,1.233 -4.582,2.637 -6.603,4.582 -1.47,1.416 -3.763,4.812 -4.321,2.809z"/>
   <path class="fil23" d="M412.873 180.79l3.101 6.974c0.138,0.262 1.348,2.624 1.55,2.983l5.178 -1.423c0.97,-3.343 0.325,-5.99 -0.37,-8.908 -0.928,-3.894 0.198,-1.772 0.529,-9.265l3.245 -39.589c-2.233,2.665 -3.561,2.135 -7.971,1.895l-1.118 -3.03c-3.976,6.541 -4.811,41.266 -4.144,50.363z"/>
   <path class="fil34" d="M79.135 240.564c-0.46,0.938 -1.322,4.116 -1.636,7.412 -0.496,5.198 -4.39,10.033 -6.669,23.512l-2.124 6.359c-0.557,1.675 -0.268,1.385 -0.7,3.019 -1.236,4.676 1.86,1.672 -2.677,3.414l-0.352 4.079c1.887,2.881 2.543,4.317 5.937,4.768 0.015,-0.214 -0.114,-0.775 -0.133,-0.63 -0.018,0.146 -0.137,-0.531 -0.163,-0.627l4.343 -4.941c4.68,-4.15 14.53,-43.564 16.313,-52.053 -3.657,2.403 0.07,0.969 -2.704,-0.428l-1.9 -1.39c-0.204,-0.582 -0.647,-0.639 -1.041,-0.854l0.621 5.103c0.02,0.069 0.113,0.368 0.129,0.439 0.016,0.073 0.082,0.391 0.094,0.467l0.075 0.991c0.001,0.088 0.011,0.419 0.005,0.51l-1.393 3.608c-0.839,-3.362 -1.107,-2.735 -1.631,-4.24l-4.394 1.482z"/>
   <path class="fil35" d="M179.805 182.945c2.371,7.148 -0.621,-0.105 3.649,3.822l4.083 1.695c0.039,-0.221 -0.048,-0.584 -0.059,-0.669 -0.853,-6.601 -3.462,2.677 -0.253,-1.87l7.925 0.442c-5.367,0.277 -2.895,-0.099 -4.294,2.85 0.362,-0.011 0.806,-0.115 1.077,-0.146 0.27,-0.032 0.744,-0.101 1.075,-0.135l5.977 0.103c0.039,0.01 4.954,2.504 5.053,2.556 2.999,-2.147 1.745,-1.534 2.416,-2.55l0.428 -1.362c0.01,-0.148 -0.07,-0.258 -0.009,-0.363 3.407,0.496 3.815,0.793 6.169,2.427 6.17,4.281 2.27,3.757 2.268,3.814 -0.171,3.431 -2.123,0.689 -0.057,4.685 1.373,2.655 0.098,0.966 4.803,3.082l-4.195 2.645 6.378 2.235c-6.013,0.78 -5.938,1.808 -10.764,5.152 1.052,1.807 1.978,3.892 2.065,4.009 3.56,4.769 10.906,1.683 7.643,1.043l-0.175 3.577 8.392 -0.179 0.577 -4.924c-5.267,-2.643 0.772,1.841 -5.232,-1.426 0.056,-0.013 2.808,-1.082 2.833,-1.104 2.693,-2.428 -2.011,-0.463 2.519,-4.723 -0.575,-2.631 -1.223,-3.549 -1.42,-4.213 -0.044,-0.15 -0.131,-0.473 -0.17,-0.616 -0.039,-0.139 -0.122,-0.464 -0.158,-0.604l-6.042 -12.531c-6.364,-5.407 1.427,-0.191 -2.08,-3.546l-9.366 -2.28c-17.98,-0.212 -5.288,-0.54 -14.978,-1.92 -5.688,-0.81 -0.822,2.429 -7.366,0.39l-8.712 0.634z"/>
   <path class="fil25" d="M347.613 239.35c-1.794,3.642 -3.033,-3.669 -1.225,4.45 -3.557,1.026 -0.68,-1.726 -0.035,4.985l-1.57 -2.395c-0.509,3.577 -0.885,1.6 0.658,4.463 -0.962,1.569 -0.506,1.447 -3.422,1.904l-5.257 10.351 -1.273 2.379 -3.822 0.093c-9.645,-0.588 -17.592,-0.009 -22.538,-11.185 -4.449,-10.054 -3.566,-18.233 5.004,-25.19l-1.559 -1.959c-4.581,1.482 -3.361,1.909 -8.35,-0.096 1.312,6.504 -8.899,9.663 -1.799,27.55 7.344,18.505 27.61,22.897 40.344,9.59 7.541,-7.879 6.515,-15.209 4.844,-24.94z"/>
   <path class="fil34" d="M442.928 302.789l1.934 3.565c3.028,-3.204 0.929,-2.398 6.056,-1.479 0.839,-6.612 0.446,-2.768 -1.811,-7.888l-15.111 -44.423 -2.266 -3.054c-2.67,4.041 0.427,1.026 -5.074,3.891 5.324,-6.106 3.152,-2.269 -4.043,-4.659 3.379,7.856 6.049,19.731 8.802,28.335 2.503,7.823 7.415,18.716 11.513,25.712z"/>
   <path class="fil11" d="M259.381 219.692l16.001 -0.013 0.105 -40.761c-0.232,0.329 -0.378,0.8 -0.52,1.09 -0.139,0.284 -0.333,0.733 -0.505,1.069 -3.186,6.256 -2.822,3.913 -4.599,5.752 -2.412,2.496 3.145,-0.189 -1.995,1.894 -0.779,0.316 -5.01,0.517 -5.846,0.447 -1.196,-0.099 -1.939,-0.374 -2.516,-0.555 -5.524,-1.737 2.557,-0.684 -1.311,-0.489l1.186 31.566z"/>
   <path class="fil36" d="M220.353 233.518l-75.392 0.229c1.993,2.283 4.275,1.827 6.255,3.753l45.946 -0.207 1.176 -0.349c16.04,-2.173 85.172,3.026 92.731,-1.471 -5.407,-5.517 -24.073,-2.144 -32.902,-2.168 -11.519,-0.032 -26.754,-0.744 -37.814,0.213z"/>
   <path class="fil37" d="M269.349 67.32l0.066 2.008c0.853,4.64 2.256,1.036 -0.274,5.611 -0.838,5.649 1.527,8.648 -4.704,13.248l-1.396 2.029c-0.974,3.584 0.486,1.937 -1.51,3.562l7.045 -5.062 0.575 4.911 0.53 5.817c0.158,0.091 1.442,-1.597 1.89,2.361l-0.33 2.069c-0.05,0.312 -0.435,1.405 -0.494,1.208 -0.064,-0.212 -0.308,0.912 -0.606,1.278l0.204 1.236 -0.731 8.543c4.628,0.139 1.25,-0.379 2.307,2.845l-0.248 3.639c-0.003,3.682 -1.115,4.806 -2.165,7.857l1.29 1.043 2.6 -0.148 1.26 5.374 0.274 -0.64c3.172,2.424 1.345,-0.105 2.814,3.545 1.103,2.74 0.196,0.713 0.288,3.755l-0.166 3.674 -5.667 -0.541 8.293 -0.191c2.452,3.605 2.084,0.89 -0.241,3.457 4.165,-0.793 19.849,1.383 25.519,1.667 9.208,0.461 18.506,0.072 27.697,0.319 0.933,-1.328 2.181,0.022 -1.22,-2.889l-49.422 -2.894c-11.159,-17.056 -8.585,-53.299 -9.886,-74.212l1.557 -7.721c-4.331,4.174 0.096,2.096 -5.149,3.242z"/>
   <path class="fil12" d="M45.89 55.758c5.882,1.679 3.233,1.202 8.066,4.183 0.836,-11.043 -2.131,-1.882 2.5,-9.996 1.06,-1.856 3.272,-7.919 3.752,-9.863 1.159,-4.69 3.509,-18.792 4.98,-21.585l-5.37 -15.83c-2.992,1.651 -6.808,21.399 -8.014,26.654 -1.505,6.562 -8.952,21.65 -5.914,26.437z"/>
   <path class="fil35" d="M296.092 211.867c2.314,-13.254 6.831,-19.116 17.877,-25.96l-0.653 -3.128c-3.137,1.654 0.594,0.353 -3.902,0.273l-6.547 0.007c-8.618,0.25 -6.219,2.879 -10.605,6.399 -2.777,2.228 1.622,-2.236 -5.727,1.304 -3.561,5.142 0.651,0.164 -1.528,4.143 -2.811,5.133 -2.425,-0.677 -1.75,6.948l1.493 12.329c2.451,2.701 0.151,0.851 4.139,2.315 7.172,-3.592 -0.11,-3.238 7.203,-4.63z"/>
   <path class="fil13" d="M448.715 17.149l2.472 19.637c2.191,3.232 3.494,8.343 4.58,12.511 3.204,12.307 2.932,3.91 5.538,9.769 0.956,2.448 -0.53,0.282 1.819,1.288 2.115,-2.857 2.408,-2.505 2.446,-5.228 -1.618,-3.662 -1.482,-2.576 -4.937,-3.672 4.38,-3.781 1.726,-0.63 -0.626,-7.148l4.337 -0.792c-0.557,-4.883 -3.633,-12.528 -4.789,-17.758 -1.395,-6.31 -3.745,-14.165 -3.751,-20.649 -0.716,-2.761 0.181,-1.389 -2.08,-2.44 -2.306,4.83 -4.358,8.937 -5.009,14.482z"/>
   <path class="fil38" d="M176.54 175.911c0.62,5.15 -0.857,3.298 1.84,4.365 5.486,-0.529 5.546,-1.556 10.376,-3.147 4.177,-1.376 6.875,-0.191 10.227,-0.135 4.932,0.081 6.66,-0.137 10.718,1.294 6.918,2.441 1.48,-1.585 8.969,0.216 2.176,0.523 8.416,4.187 9.938,9.981 4.223,16.072 2.571,14.462 3.19,31.568 3.379,-5.498 0.035,-37.473 -1.495,-45.455 -3.88,-2.172 -17.935,-3.686 -24.582,-3.763 -15.185,-0.175 -13.976,-0.836 -25.676,7.331l-3.505 -2.255z"/>
   <path class="fil39" d="M77.604 122.225c-0.019,-5.725 1.327,-7.343 -1.396,-10.873 0.005,0.004 1.287,1.623 1.488,1.744 3.455,2.07 -1.467,2.029 2.618,0.545l-8.89 -25.581c-1.819,-7.038 -11.626,-25.273 -17.468,-28.119 -4.833,-2.981 -2.184,-2.504 -8.066,-4.183 11.362,22.524 18.485,22.402 27.514,57.229l2.09 6.718c1.841,3.077 -1.532,-0.341 2.11,2.52z"/>
   <path class="fil40" d="M444.571 59.435c-1.203,6.788 -18.32,26.681 -18.646,39.108l2.931 2.207c0.097,-1.518 -0.017,-3.396 4.155,-6.268l3.072 2.323c4.442,-10.59 9.712,-26.379 17.775,-32.235 0.831,-4.061 -1.002,-1.159 1.975,-4.208l0.033 -3.312c0.006,-0.171 0.179,-0.232 0.164,-0.364 -7.63,1.739 -1.856,1.857 -8.442,0.343l-1.997 0.311c0.855,2.583 1.51,2.095 -1.02,2.095z"/>
   <path class="fil0" d="M178.38 180.276l1.425 2.669 8.712 -0.634c6.544,2.039 1.678,-1.2 7.366,-0.39 9.69,1.38 -3.002,1.708 14.978,1.92l9.366 2.28c3.507,3.355 -4.284,-1.861 2.08,3.546l6.042 12.531c0.036,0.14 0.119,0.465 0.158,0.604 0.039,0.143 0.126,0.466 0.17,0.616 0.197,0.664 0.845,1.582 1.42,4.213 -4.53,4.26 0.174,2.295 -2.519,4.723 -0.025,0.022 -2.777,1.091 -2.833,1.104 6.004,3.267 -0.035,-1.217 5.232,1.426l-0.577 4.924 2.398 0.245c-0.619,-17.106 1.033,-15.496 -3.19,-31.568 -1.522,-5.794 -7.762,-9.458 -9.938,-9.981 -7.489,-1.801 -2.051,2.225 -8.969,-0.216 -4.058,-1.431 -5.786,-1.213 -10.718,-1.294 -3.352,-0.056 -6.05,-1.241 -10.227,0.135 -4.83,1.591 -4.89,2.618 -10.376,3.147z"/>
   <path class="fil29" d="M425.925 98.543c-4.517,3.202 -9.572,25.989 -8.908,31.884l1.118 3.03c4.41,0.24 5.738,0.77 7.971,-1.895 1.498,-5.219 1.09,-10.96 4.559,-15.16 -0.356,-6.118 2.9,-14.057 5.418,-19.597l-3.072 -2.323c-4.172,2.872 -4.058,4.75 -4.155,6.268l-2.931 -2.207z"/>
   <path class="fil41" d="M280.388 220.459c1.837,-4.647 -0.275,0.381 -0.922,-9.028 -0.258,-3.761 0.047,-8.517 0.207,-12.347 0.167,-4.022 0.484,-8.28 0.847,-12.278 0.67,-7.39 1.642,-4.543 2.699,-10.289 7.782,-1.146 24.315,-2.761 32.059,-0.505l8.955 1.594c5.465,1.055 5.852,1.722 8.619,-1.125 -8.54,-0.847 -18.926,-13.178 -52.254,-4.971 -0.987,6.64 -6.49,47.037 -0.21,48.949z"/>
   <path class="fil39" d="M436.083 96.805c-2.518,5.54 -5.774,13.479 -5.418,19.597 6.747,2.964 -3.389,1.401 1.623,-0.165 0.652,-0.204 0.622,-0.905 2.465,-1.077l-0.902 3.406c4.404,-3.266 7.651,-22.044 17.499,-39.834 2.654,-4.795 5.741,-9.258 6.894,-13.546l-3.452 2.855 -0.934 -3.471c-8.063,5.856 -13.333,21.645 -17.775,32.235z"/>
   <path class="fil42" d="M237.312 398.512l3.317 17.13 10.933 7.159c0.01,0.049 -0.025,0.34 -0.02,0.392l0.347 12.604c0.921,6.887 3.822,1.098 -0.514,8.779l2.243 2.46 1.043 2.992 0.259 -37.554 -4.29 -0.955c3.673,-3.501 2.181,-1.606 2.618,-8.445l-1.827 3.848c-5.248,-1.304 -5.227,2.151 -0.806,-4.505 -1.035,0.165 -4.594,0.423 -4.038,2.329l-0.581 -7.427 -3.655 2.872c3.816,-6.486 1.482,-0.942 0.063,-3.279 -2.014,-3.319 -0.455,3.868 -2.47,-2.208 -0.199,0.326 -0.577,0.692 -0.721,0.89 -0.146,0.2 -0.54,0.729 -0.685,0.93l-1.216 1.988z"/>
   <path class="fil43" d="M203.887 264.256c3.055,-1.037 3.911,-2.68 5.689,-4.733 2.226,2.975 1.08,2.442 2.601,3.785 -1.705,-2.1 -2.066,-4.092 3.885,-5.905 4.793,-1.46 6.096,1.32 10.019,2.805l-2.578 7.906c-7.225,-0.188 -2.907,-0.886 -8.334,0.216 4.419,-2.392 8.982,2.427 9.419,2.578 3.831,1.317 3.895,0.143 5.277,3.214 1.495,3.323 1.057,6.282 -1.976,7.514l2.527 1.568c-0.675,-6.875 -0.088,-13.666 -0.144,-20.509 -0.045,-5.607 0.002,-3.576 -2.416,-10.294 -0.06,-0.165 -0.161,-0.517 -0.217,-0.669 -0.988,-2.642 1.463,-0.31 -1.396,-2.452 -4.385,-3.284 -9.794,-0.968 -14.709,1.23 -9.198,4.113 -5.877,2.861 -7.647,13.746z"/>
   <path class="fil6" d="M312.594 223.025l5.268 5.413c-2.509,6.164 -9.785,6.512 -7.825,18.171 0.905,5.377 4.861,12.844 10.501,14.739 22.88,7.687 20.971,-28.13 7.211,-18.27 2.888,5.522 -0.083,-0.357 6.348,3.434 0.27,7.204 1.537,10.825 -7.579,10.729 -5.008,-0.053 -9.267,-2.334 -11.354,-6.739 -4.207,-8.883 1.363,-16.078 7.594,-21.094 -2.891,-3.268 -2.383,-0.948 -5.263,-4.241 -2.025,-2.315 -1.076,-2.543 -3.581,-4.921 3.054,5.583 1.318,1.644 -1.32,2.779z"/>
   <path class="fil19" d="M350.982 214.368l3.297 5.41 -4.483 3.673 -4.898 2.467 -9.773 2.962 16.003 6c4.129,-0.428 4.231,0.463 6.052,4.555l-2.321 1.657 -3.89 3.84 7.189 -0.788c2.948,-8.203 -0.429,-8.979 -2.287,-12.649l3.583 0.223c-0.1,-0.394 -0.925,-0.859 -1.237,-1.959l6.379 -2.227c-1.613,-3.156 -0.811,-3.61 -5.194,-1.966 -3.668,1.375 -0.303,1.526 -6.456,1.854 3.816,-2.956 9.689,-5.971 5.066,-12.168 -2.49,-1.971 -4.338,-1.35 -7.03,-0.884z"/>
   <path class="fil23" d="M243.109 133.179c-6.476,1.951 -7.25,5.462 -7.966,12.108 9.251,0.88 26.112,-10.628 34.365,-14.807 1.05,-3.051 2.162,-4.175 2.165,-7.857 -4.253,2.695 -16.465,8.878 -21.023,8.803 -1.142,2.66 1.16,1.693 -7.404,4.387 -1.8,-1.297 -2.107,0.838 -0.137,-2.634z"/>
   <path class="fil44" d="M257.152 250.446l-0.018 31.323 4.738 -2.671c-2.25,-4.335 -0.488,-1.334 -1.864,-2.208 -0.959,-0.608 -0.709,-0.019 -1.059,0.186 -0.355,-3.265 0.838,-1.289 0.758,-5.866 -0.001,-0.073 -0.016,-0.381 -0.019,-0.455l-0.709 -3.854c0.361,0.44 -4.043,1.788 4.287,0.519l1.413 -4.547c1.692,-4.195 2.048,-3.443 0.891,-10.192 0.64,0.889 -0.862,1.503 4.169,-1.398 0.319,-0.184 0.759,-0.452 1.032,-0.613 0.285,-0.167 0.689,-0.482 1.075,-0.641l2.726 2.206 0.925 -3.102 0.132 -8.488 -3.31 2.151c4.508,5.246 -3.448,-3.209 -6.28,5.291l-2.45 -3.513c-1.507,2.367 0.408,1.531 -3.463,2.018 5.336,3.565 0.781,5.17 0.772,5.182 -2.362,-3.201 -1.445,1.5 -1.403,-5.509l-2.343 4.181z"/>
   <path class="fil23" d="M244.602 70.907l1.677 9.994 3.457 -0.151c6.999,-2.1 15.423,-6.357 19.679,-11.422l-0.066 -2.008 0.272 -3.79c-12.534,0.434 -14.683,2.855 -25.019,7.377z"/>
   <path class="fil45" d="M312.594 223.025c2.638,-1.135 4.374,2.804 1.32,-2.779 0.468,-9.033 -2.014,-8.712 5.178,-15.258 8.243,-6.237 21.106,0.968 11.933,10.939l-1.713 2.017c-0.116,0.154 -0.373,0.502 -0.47,0.794 15.269,-0.951 11.615,-21.721 -3.604,-21.217 -12.418,0.413 -19.757,14.559 -12.644,25.504z"/>
   <path class="fil46" d="M230.744 140.135c5.687,-6.131 7.913,-40.888 8.293,-50.843 -0.295,0.297 -0.564,0.713 -0.749,1.007 -6.746,10.728 2.673,4.962 -5.864,8.136 2.756,2.77 5.357,3.134 3.609,5.158 -3.538,4.097 2.454,-0.715 -2.679,1.648 -0.993,0.458 -1.651,0.822 -3.348,1.432 2.805,4.037 4.649,4.522 -0.234,9.947 -1.297,-0.285 -3.88,1.522 -3.103,-2.55 4.836,4.972 1.235,0.861 1.221,7.341 -0.02,9.454 2.616,4.796 -0.585,7.907 -0.845,0.821 -1.447,1.401 -1.59,1.103 -0.132,-0.274 -0.65,0.379 -0.965,0.584 5.429,2.011 5.04,3.518 5.994,9.13z"/>
   <path class="fil38" d="M302.346 266.52c-0.719,3.964 5.673,11.327 9.545,12.33 0.552,0.142 2.908,0.184 3.881,0.398 2.676,0.59 3.942,2.945 11.418,2.239 10.805,-1.02 23.028,-10.412 24.574,-21.824 -6.816,6.28 -10.472,14.483 -21.882,16.181 -15.992,2.381 -16.7,-3.308 -27.536,-9.324z"/>
   <path class="fil23" d="M243.521 118.704l-2.911 0.072 -0.345 10.015 7.218 -2.164c5.117,-0.651 16.906,-7.735 22.131,-10.488l0.731 -8.543 -20.393 10.195c-3.969,1.851 -3.028,0.58 -6.874,3.812 -1.411,-1.61 -2.027,0.652 0.443,-2.899z"/>
   <path class="fil23" d="M259.38 94.78l-2.316 1.769c-1.491,7.314 -11.191,2.401 -12.316,11.406l-0.007 -4.819c-3.036,2.411 -1.611,-0.652 -2.807,5.368 -0.407,2.046 -0.371,4.757 -0.273,6.803 1.685,-1.622 10.401,-5.296 13.573,-6.828 6.334,-3.057 9.908,-6.678 14.447,-9.035l-0.53 -5.817c-6.855,-0.598 -7.48,6.322 -9.771,1.153z"/>
   <path class="fil6" d="M166.67 274.717c4.254,-5.95 1.271,-1.27 2.338,-9.522 1.359,4.151 1.938,-1.156 8.318,3.61 2.298,1.717 1.073,0.738 1.764,2.624 4.706,12.853 1.571,3.925 10.841,11.481 0.213,-3.888 -3.189,2.784 -0.072,-3.829l7.241 0.096 -0.778 -3.412 -13.158 -1.206 -1.293 -13.162c-12.418,-5.606 -3.518,-1.336 -7.416,-12.146 -1.271,14.555 1.426,7.858 -8.207,13.109l0.422 12.357z"/>
   <path class="fil24" d="M258.263 180.778c-2.482,0.37 -1.18,15.511 -1.131,18.306 0.065,3.689 0.102,7.323 0.048,11.016 -0.082,5.585 -1.244,7.087 2.201,9.592l-1.186 -31.566c3.868,-0.195 -4.213,-1.248 1.311,0.489 0.577,0.181 1.32,0.456 2.516,0.555 0.836,0.07 5.067,-0.131 5.846,-0.447 5.14,-2.083 -0.417,0.602 1.995,-1.894 1.777,-1.839 1.413,0.504 4.599,-5.752 0.172,-0.336 0.366,-0.785 0.505,-1.069 0.142,-0.29 0.288,-0.761 0.52,-1.09l-0.09 -5.963c-4.331,3.404 -5.863,3.799 -11.91,4.707l1.834 2.415c-5.354,-1.462 -0.737,0.411 -7.058,0.701z"/>
   <path class="fil47" d="M257.134 281.769l-0.156 0.28c0.965,0.916 2.68,2.029 3.942,3.758l4.752 -4.656c0.057,-0.08 0.259,-0.381 0.308,-0.466l0.53 -1.49c0.012,-0.074 0.015,-0.391 0.021,-0.465l0.215 -3.711c-0.002,-0.19 -3.2,-3.358 2.51,-5.185 1.938,1.69 -1.849,3.546 -0.698,-1.775l0.445 -1.114c0.046,-0.111 0.248,-0.416 0.297,-0.528 0.049,-0.112 0.238,-0.412 0.286,-0.526 2.065,-4.897 1.726,-7.621 3.918,-7.021l1.068 -6.635 -2.726 -2.206c-0.386,0.159 -0.79,0.474 -1.075,0.641 -0.273,0.161 -0.713,0.429 -1.032,0.613 -5.031,2.901 -3.529,2.287 -4.169,1.398 1.157,6.749 0.801,5.997 -0.891,10.192l-1.413 4.547c-8.33,1.269 -3.926,-0.079 -4.287,-0.519l0.709 3.854c0.003,0.074 0.018,0.382 0.019,0.455 0.08,4.577 -1.113,2.601 -0.758,5.866 0.35,-0.205 0.1,-0.794 1.059,-0.186 1.376,0.874 -0.386,-2.127 1.864,2.208l-4.738 2.671z"/>
   <path class="fil48" d="M233.948 56.347c2.943,4.513 32.411,3.897 40.217,3.011 7.001,-0.795 3.56,0.177 5.28,-3.168 -5.332,-2.525 -40.419,-3.08 -45.497,0.157z"/>
   <path class="fil49" d="M245.468 86.603c-2.478,3.145 -2.337,8.121 -2.611,12.233l20.184 -8.62 1.396 -2.029 3.324 -7.611c-4.212,-0.126 -16.573,4.204 -19.213,7.752 -4.494,0.748 -1.653,1.243 -3.08,-1.725z"/>
   <path class="fil47" d="M236.006 243.394l0.057 7.126 1.72 0.522c-0.974,3.558 -0.554,5.74 1.077,9.243 2.548,-2.541 1.227,-1.027 1.784,-2.846l0.495 -3.799c12.319,4.725 11.106,-2.43 13.5,-4.919l-0.246 -9.241 -5.992 -0.041 0.535 4.771c-6.046,-0.01 -2.034,0.708 -6.747,-1.707l2.27 2.117 -5.869 3.613 -2.584 -4.839z"/>
   <path class="fil50" d="M319.359 238.266c-3.578,2.235 -1.318,7.368 -0.631,10.353l5.541 2.72 1.583 -1.187 -2.704 -2.614c-0.62,-5.503 -0.353,-0.728 1.282,-3.308 -0.632,-4.106 0.461,-4.224 3.38,-7.009 13.076,-1.358 14.828,3.649 14.209,15.536 2.916,-0.457 2.46,-0.335 3.422,-1.904 -1.543,-2.863 -1.167,-0.886 -0.658,-4.463l1.57 2.395c-0.645,-6.711 -3.522,-3.959 0.035,-4.985 -1.808,-8.119 -0.569,-0.808 1.225,-4.45l-1.328 -0.368c-5.073,-1.357 -6.398,-5.775 -13.707,-5.549 -2.645,0.082 -5.727,0.655 -8.072,1.706 -3.665,1.644 -3.521,3.375 -5.147,3.127z"/>
   <path class="fil51" d="M436.403 22.77c5.064,1.029 3.414,3 4.525,9.66 0.528,3.164 1.445,6.385 2.645,9.283 2.25,-0.449 0.41,1.496 2.218,-2.024 0.224,0.271 0.436,0.392 0.558,0.895l3.899 -1.477c0.87,-3.603 -0.433,-0.436 0.939,-2.321l-2.472 -19.637c-3.909,3.832 -7.661,3.372 -12.312,5.621z"/>
   <path class="fil29" d="M443.573 41.713l4.015 15.316c6.586,1.514 0.812,1.396 8.442,-0.343 0.015,0.132 -0.158,0.193 -0.164,0.364l-0.033 3.312 5.472 -1.296c-2.606,-5.859 -2.334,2.538 -5.538,-9.769 -1.086,-4.168 -2.389,-9.279 -4.58,-12.511 -1.372,1.885 -0.069,-1.282 -0.939,2.321l-3.899 1.477c-0.122,-0.503 -0.334,-0.624 -0.558,-0.895 -1.808,3.52 0.032,1.575 -2.218,2.024z"/>
   <path class="fil52" d="M70.332 347.423c2.441,3.682 3.533,7.547 6.341,9.555l1.237 -6.619c0.472,-1.603 -0.385,-0.541 1.614,-2.689 3.082,2.789 6.003,10.206 9.054,14.245 -0.332,-0.05 -0.778,-0.232 -0.971,-0.259l-1.68 -0.284c-0.135,0.014 -0.526,0.026 -0.64,0.065 -2.696,0.924 -0.813,0.409 -1.062,2.442l-4.058 -0.699 0.186 2.133 5.472 -0.786c1.388,2.782 0.385,0.884 0.437,0.732 0.036,-0.102 0.162,-0.539 0.201,-0.675 0.063,-0.215 0.189,-0.87 0.247,-1.095 0.07,-0.275 0.146,-0.911 0.271,-1.353 4.246,6.494 1.879,4.902 9.676,7.964 -1.858,-5.389 -6.868,-9.974 -9.631,-15.595 -3.016,-6.136 -5.112,-9.777 -7.566,-16.337 -4.556,7.697 -3.942,6.202 -3.489,10.236l-5.639 -0.981z"/>
   <path class="fil53" d="M196.718 147.233c-4.475,2.844 -14.279,0.4 -20.239,1.746l-1.122 3.34 3.487 3.804 -0.281 -0.964c1.171,-3.508 -1.325,-3.381 10.058,-3.263 6.74,0.07 27.903,0.019 32.18,-2.117l-6.234 -0.154c3.195,-1.528 2.14,-0.62 4.458,-1.569 4.107,-1.682 0.398,0.597 2.378,-1.343l-24.685 0.52z"/>
   <path class="fil45" d="M151.926 414.432c1.787,4.183 6.551,6.312 10.303,8.68 4.244,2.679 7.783,5.314 12.683,6.638 0.833,-3.641 1.936,-3.961 4.295,-5.836 -4.912,-3.384 -2.704,-1.029 -4.6,-1.402 -0.204,-0.04 -0.551,-0.053 -0.748,-0.091l-1.466 -0.303c-8.606,-1.892 -6.691,-5.418 -11.386,-7.428 -2.728,-1.168 -4.7,-0.072 -9.081,-0.258z"/>
   <path class="fil44" d="M253.618 447.036l-2.243 -2.46c4.336,-7.681 1.435,-1.892 0.514,-8.779l-0.347 -12.604c-0.005,-0.052 0.03,-0.343 0.02,-0.392l-10.933 -7.159c1.909,7.504 7.713,26.769 12.989,31.394z"/>
   <path class="fil47" d="M236.417 175.48l1.833 6.581c0.883,-1.908 1.549,-2.715 4.357,-1.416 4.132,1.913 2.088,2.558 7.092,4.237 0.243,-4.536 -3.315,-0.87 3.727,-5.765 -5.027,-5.069 -7.87,-9.625 -16.641,-10.036l-0.368 6.399z"/>
   <path class="fil54" d="M336.254 160.463l-0.669 13.34c-0.863,10.507 -4.264,5.368 -10.758,9.603 7.259,0.309 8.468,1.628 15.073,3.395 1.152,-3.082 1.636,-1.665 -1.618,-5.738 -2.838,0.272 0.881,-1.383 3.204,-3.608 -2.32,-1.906 -2.032,-1.495 -1.865,-3.613 0.008,-0.088 0.105,-0.406 0.121,-0.491l0.329 -0.904c0.021,-0.084 0.131,-0.388 0.15,-0.476 0.739,-3.49 -1.408,-10.214 -2.447,-15.362l-1.52 3.854z"/>
   <path class="fil33" d="M248.943 44.296l0.956 7.657c5.156,-0.969 8.21,-0.538 13.012,-1.713l1.798 -6.313c-7.078,-0.63 -3.59,-1.82 -8.577,-4.657 -4.36,3.473 -1.734,3.242 -7.189,5.026z"/>
   <path class="fil55" d="M155.682 447.961c2.042,2.448 5.28,4.098 8.702,4.879l5.761 0.332c-2.927,-4.751 -0.643,-0.662 1.416,-4.784 -3.107,-4.009 -0.223,-0.513 -5.185,-3.705 -2.023,-1.3 -3.501,-2.242 -5.785,-3.687 -6.118,1.356 -0.407,-0.336 -4.312,2.419 -1.515,1.069 1.311,0.861 -1.928,0.725l1.331 3.821z"/>
   <path class="fil56" d="M257.152 250.446l2.343 -4.181c-0.042,7.009 -0.959,2.308 1.403,5.509 0.009,-0.012 4.564,-1.617 -0.772,-5.182 3.871,-0.487 1.956,0.349 3.463,-2.018l2.45 3.513c2.832,-8.5 10.788,-0.045 6.28,-5.291l3.31 -2.151 -1.494 -1.716 -16.588 0.461 -0.395 11.056z"/>
   <path class="fil57" d="M238.209 89.787c2.515,-4.107 1.876,-9.853 1.672,-15.24 -2.528,-1.942 -6.901,-8.021 -6.555,-10.862l-2.836 -0.86c0.383,9.945 2.516,5.652 2.835,13.443 0.296,7.227 1.758,3.563 2.749,5.241 2.278,3.859 -3.394,-1.096 1.997,4.38l0.138 3.898z"/>
   <path class="fil25" d="M298.019 240.557l-0.427 -5.274 3.756 -4.329 -2.123 -12.001 -6.42 4.474c2.45,7.47 -0.928,13.184 5.214,17.13z"/>
   <path class="fil41" d="M278.777 259.247c3.941,-5.264 1.128,-11.228 7.081,-13.537 4.822,-1.87 6.234,-1.422 10.252,-0.785l-0.776 -3.152c-4.911,-3.286 -9.037,-1.517 -14.818,-1.605l-1.739 19.079z"/>
   <path class="fil21" d="M243.109 133.179c-1.97,3.472 -1.663,1.337 0.137,2.634 8.564,-2.694 6.262,-1.727 7.404,-4.387 4.558,0.075 16.77,-6.108 21.023,-8.803l0.248 -3.639c-0.742,0.239 -27.899,13.565 -28.812,14.195z"/>
   <path class="fil22" d="M254.092 143.181l-6.806 2.609c9.265,0.004 21.04,1.61 27.802,-5.264l-0.156 -4.417 -0.274 0.64 -13.342 4.56c-0.091,0.273 -0.217,0.722 -0.25,0.827l-0.384 1.152c-0.002,-0.017 -0.005,-0.042 -0.056,-0.44l-6.534 0.333z"/>
   <path class="fil13" d="M76.673 356.978c1.262,4.11 0.409,4.497 3.494,6.202l4.058 0.699c0.249,-2.033 -1.634,-1.518 1.062,-2.442 0.114,-0.039 0.505,-0.051 0.64,-0.065l1.68 0.284c0.193,0.027 0.639,0.209 0.971,0.259 -3.051,-4.039 -5.972,-11.456 -9.054,-14.245 -1.999,2.148 -1.142,1.086 -1.614,2.689l-1.237 6.619z"/>
   <path class="fil44" d="M258.263 180.778c6.321,-0.29 1.704,-2.163 7.058,-0.701l-1.834 -2.415c6.047,-0.908 7.579,-1.303 11.91,-4.707l-0.249 -4.031c-8.815,0.174 -13.571,4.659 -16.885,11.854z"/>
   <path class="fil58" d="M250.99 35.371l3.636 0.242c3.668,0.92 7.893,5.042 10.083,8.314l-1.798 6.313c2.971,-2.469 1.859,1.982 2.783,-3.599l2.239 -0.537 0.593 -4.358 -12.612 -11.609 -4.924 5.234z"/>
   <path class="fil10" d="M245.468 86.603c1.427,2.968 -1.414,2.473 3.08,1.725 2.64,-3.548 15.001,-7.878 19.213,-7.752l-3.324 7.611c6.231,-4.6 3.866,-7.599 4.704,-13.248l-23.673 11.664z"/>
   <path class="fil59" d="M176.159 429.975c2.983,4.048 7.741,5.906 12.662,7.396 0.665,-2.56 0.235,-7.08 -2.048,-9.229l-1.448 2.67c-1.592,-3.552 -1.357,-2.543 -8.219,-3.927l-0.947 3.09z"/>
   <path class="fil27" d="M243.521 118.704c-2.47,3.551 -1.854,1.289 -0.443,2.899 3.846,-3.232 2.905,-1.961 6.874,-3.812l20.393 -10.195 -0.204 -1.236c-1.349,-3.673 -1.098,-1.476 -5.748,1.409 -2.268,1.407 -5.008,2.693 -7.251,3.876 -4.341,2.287 -10.299,4.19 -13.621,7.059z"/>
   <path class="fil60" d="M236.006 243.394l2.584 4.839 5.869 -3.613 -2.27 -2.117c4.713,2.415 0.701,1.697 6.747,1.707l-0.535 -4.771 -11.782 -0.068 -0.613 4.023z"/>
   <path class="fil61" d="M163.002 270.873c-7.801,-6.697 6.578,1.881 -2.398,-1.569 -4.613,-1.773 1.275,-0.004 -2.494,-0.665 -2.35,-0.413 -5.355,3.445 -5.796,-8.208 -0.102,-2.684 0.662,-5.556 1.197,-8.087 1.853,1.116 1.084,1.644 1.952,0.144 -4.358,-2.811 -2.386,-0.932 -2.729,-15.407l44.428 0.212 -45.946 0.207 -0.594 33.345 12.38 0.028z"/>
   <path class="fil62" d="M270.798 131.523c-4.099,7.344 -11.494,7.089 -16.706,11.658l6.534 -0.333c0.051,0.398 0.054,0.423 0.056,0.44l0.384 -1.152c0.033,-0.105 0.159,-0.554 0.25,-0.827l13.342 -4.56 -1.26 -5.374 -2.6 0.148z"/>
   <path class="fil54" d="M349.59 196.65l2.859 12.108 3.31 1.17c6.18,-6.321 -3.684,0.298 3.017,-7.708l-3.188 0.158 1.019 -4.172 -7.017 -1.556z"/>
   <path class="fil52" d="M299.354 216.006l3.049 6.372 0.181 -4.069c1.175,1.948 1.106,1.9 2.003,2.085l-0.435 -3.006 2.838 -0.285 0.19 -5.825c-3.959,-1.112 -2.607,-1.416 -5.66,-3.106 -2.16,2.673 -0.903,3.434 -2.166,7.834z"/>
   <path class="fil63" d="M324.921 441.787c5.276,-0.635 12.645,-5.481 17.647,-8.211 2.338,-2.141 7.403,-5.255 10.969,-7.289 2.117,-1.207 4.202,-2.296 6.345,-3.488 4.231,-2.353 4.171,-0.848 4.221,-4.644 -5.081,3.816 -13.815,8.96 -19.593,12.399 -4.927,2.931 -15.935,8.074 -19.589,11.233z"/>
   <path class="fil29" d="M302.403 222.378l1.821 4.772c4.989,2.005 3.769,1.578 8.35,0.096 -3.704,-2.213 -4.892,-5.955 -5.584,-10.143l-2.838 0.285 0.435 3.006c-0.897,-0.185 -0.828,-0.137 -2.003,-2.085l-0.181 4.069z"/>
   <path class="fil64" d="M322.832 232.935l-3.473 5.331c1.626,0.248 1.482,-1.483 5.147,-3.127 2.345,-1.051 5.427,-1.624 8.072,-1.706 7.309,-0.226 8.634,4.192 13.707,5.549 -8.322,-8.948 -11.557,-8.626 -23.453,-6.047z"/>
   <path class="fil64" d="M305.992 197.992c0.558,2.003 2.851,-1.393 4.321,-2.809 2.021,-1.945 4.084,-3.349 6.603,-4.582 8.393,-4.108 12.236,-0.213 19.752,-0.425 -10.432,-5.907 -24.76,-2.583 -30.676,7.816z"/>
   <path class="fil65" d="M248.943 44.296c5.455,-1.784 2.829,-1.553 7.189,-5.026 4.987,2.837 1.499,4.027 8.577,4.657 -2.19,-3.272 -6.415,-7.394 -10.083,-8.314 -2.493,4.492 -5.811,5.607 -5.683,8.683z"/>
   <path class="fil66" d="M465.57 55.126c3.142,-1.195 1.916,0.708 2.539,-2.544l-3.765 -9.068 -4.337 0.792c2.352,6.518 5.006,3.367 0.626,7.148 3.455,1.096 3.319,0.01 4.937,3.672z"/>
   <path class="fil63" d="M187.781 444.526l21.329 9.671c-1.876,-2.737 -23.967,-14.043 -27.594,-14.403 2.845,3.99 2.599,0.741 6.265,4.732z"/>
   <path class="fil67" d="M190.049 261.831l0.952 -4.491 -11.241 -3.383 -0.144 -9.568c-3.11,-0.692 -7.205,-1.787 -9.355,0.875l8.59 -0.889 0.041 12.878 10.464 0.29 0.693 4.288z"/>
   <path class="fil68" d="M455.833 60.362c-2.977,3.049 -1.144,0.147 -1.975,4.208l0.934 3.471 3.452 -2.855 4.88 -4.832c-2.349,-1.006 -0.863,1.16 -1.819,-1.288l-5.472 1.296z"/>
   <path class="fil69" d="M112.845 391.172c-0.648,-5.105 -0.633,-4.023 -4.514,-7.864 -5.797,6.749 -2.077,-1.132 -2.909,5.638l-0.425 1.781c-0.043,0.188 -0.225,0.576 -0.317,0.871 4.889,-3.268 0.398,-0.258 8.165,-0.426z"/>
   <path class="fil45" d="M272.941 71.799l1.954 1.785c2.146,-3.326 3.684,-5.51 4.684,-9.957l-5.081 0.451 -1.557 7.721z"/>
   <path class="fil68" d="M187.781 444.526c-3.666,-3.991 -3.42,-0.742 -6.265,-4.732l0.658 2.92c-2.92,4.454 -0.938,2.88 -4.241,5.663l1.549 0.025c0.205,0.036 0.586,0.113 0.826,0.163 0.262,0.055 0.588,0.204 0.875,0.269 3.592,0.819 -0.1,1.417 6.011,0.761l-5.512 -5.452 6.099 0.383z"/>
   <path class="fil69" d="M359.454 231.718l3.846 2.918 4.54 -4.256 -1.243 -1.748c-1.608,2.744 -1.796,2.131 -2.001,-1.1l-6.379 2.227c0.312,1.1 1.137,1.565 1.237,1.959z"/>
   <path class="fil63" d="M325.427 220.33c0.634,1.831 -1.397,2.511 4.046,3.884 2.18,0.55 3.587,0.232 5.393,-0.634 2.034,-0.977 7.576,-4.13 5.026,-5.561 -5.947,3.383 -6.819,6.812 -14.465,2.311z"/>
   <path class="fil66" d="M351.128 234.88l-3.401 1.94 2.092 3.387c6.251,-1.264 -3.778,2.75 1.881,-0.76 6.535,-4.053 -0.819,-1.215 2.574,-2.184l0.585 3.829 2.321 -1.657c-1.821,-4.092 -1.923,-4.983 -6.052,-4.555z"/>
   <path class="fil70" d="M242.699 68.004c7.64,-0.88 4.651,-1.094 10.231,-4.952l-9.719 0.235 -0.512 4.717z"/>
   <path class="fil71" d="M330.89 251.054l-6.621 0.285 -5.541 -2.72c1.741,4.448 0.437,1.804 4.125,5.015l7.828 0.412 0.209 -2.992z"/>
   <path class="fil27" d="M261.531 93.778l-2.151 1.002c2.291,5.169 2.916,-1.751 9.771,-1.153l-0.575 -4.911 -7.045 5.062z"/>
   <path class="fil38" d="M239.881 74.547l-2.704 -10.044 -3.851 -0.818c-0.346,2.841 4.027,8.92 6.555,10.862z"/>
   <polygon class="fil72" points="249.736,80.75 246.279,80.901 244.602,70.907 242.633,72.332 244.032,82.843 "/>
   <path class="fil70" d="M247.483 126.627l-7.218 2.164 0.345 -10.015c-1.637,3.345 -1.891,8.093 -2.576,12.539 3.423,0.075 6.598,-2.449 9.449,-4.688z"/>
   <path class="fil73" d="M324.499 212.602l5.977 -0.997 -1.216 -5.186c-2.476,2.724 -0.329,1.238 -3.938,2.561 -0.347,0.127 -2.468,0.237 -2.867,0.317 4.304,2.554 0.35,1.9 6.218,0.389 -6.913,1.424 -1.981,-0.155 -4.174,2.916z"/>
   <path class="fil74" d="M324.269 251.339l6.621 -0.285c-3.091,-5.049 0.708,-1.063 -5.846,-4.167l-0.614 -2.657c-1.635,2.58 -1.902,-2.195 -1.282,3.308l2.704 2.614 -1.583 1.187z"/>
   <path class="fil17" d="M244.741 103.136l0.007 4.819c1.125,-9.005 10.825,-4.092 12.316,-11.406l-12.323 6.587z"/>
   <path class="fil62" d="M386.118 401.772c5.391,-2.811 9.592,-8.507 13.674,-13.566l1.973 -2.705c-2.884,2.64 -5.017,5.407 -7.65,8.108 -3.394,3.483 -6.089,4.099 -7.997,8.163z"/>
   <path class="fil63" d="M163.581 429.419l-16.262 -9.497c1.959,3.155 3.444,3.024 6.914,5.227 4.828,3.065 4.008,4.574 9.348,4.27z"/>
   <path class="fil75" d="M276.078 469.551c3.965,-0.596 14.881,-7.615 17.371,-10.717l-17.371 10.717z"/>
   <path class="fil66" d="M344.898 225.918l4.898 -2.467 -0.303 -0.896 -0.961 -2.901c-3.19,2.727 -1.669,1.648 -3.634,6.264z"/>
   <path class="fil63" d="M312.899 447.433c4.337,-0.211 9.562,-2.185 12.022,-5.646l-12.022 5.646z"/>
   <path class="fil65" d="M293.449 458.834c4.627,-0.597 2.308,-0.505 6.553,-3.031 0.978,-0.582 2.55,-1.206 3.311,-1.769 2.4,-1.776 1.065,-0.325 2.311,-2.748l-12.175 7.548z"/>
   <path class="fil63" d="M240.232 473.24l-12.289 -8.693c0.524,4.064 1.334,1.836 5.388,4.68 3.732,2.618 1.726,2.184 6.901,4.013z"/>
   <path class="fil63" d="M367.535 415.931c4.104,-0.571 8.044,-3.419 10.191,-6.865l-10.191 6.865z"/>
   <polygon class="fil48" points="272.201,146.542 277.868,147.083 278.034,143.409 "/>
   <path class="fil75" d="M260.173 481.675c3.366,-1.503 7.335,-2.091 7.396,-6.176l-7.396 6.176z"/>
   <path class="fil64" d="M210.551 455.636c3.744,1.879 3.621,2.873 6.937,1.767l-8.378 -3.206c0.87,1.427 -1.427,0.78 1.441,1.439z"/>
   <path class="fil63" d="M142.04 416.307c-1.906,-3.215 -6.98,-6.825 -10.707,-8.535l10.707 8.535z"/>
   <path class="fil76" d="M349.493 222.555c3.356,-2.884 1.653,-0.78 2.248,-3.61l-3.209 0.709 0.961 2.901z"/>
   <path class="fil63" d="M128.643 405.283l-5.43 -5.386c1.249,3.531 1.772,3.614 5.43,5.386z"/>
   <path class="fil75" d="M377.726 409.066l6.339 -5.032c-3.515,1.383 -4.63,1.947 -6.339,5.032z"/>
   <polygon class="fil63" points="331.667,265.58 335.489,265.487 336.762,263.108 "/>
   <path class="fil77" d="M118.212 395.491c-2.419,-3.284 -1.985,-3.443 -5.367,-4.319l5.367 4.319z"/>
   <path class="fil63" d="M147.319 419.922c-1.828,-2.919 -1.395,-2.338 -5.279,-3.615l5.279 3.615z"/>
   <path class="fil78" d="M366.597 228.632l-2.001 -1.1c0.205,3.231 0.393,3.844 2.001,1.1z"/>
   <path class="fil65" d="M384.065 404.034l2.053 -2.262c-2.93,0.676 -1.53,-0.955 -2.053,2.262z"/>
   <polygon class="fil64" points="131.333,407.772 128.643,405.283 "/>
  </g>
 </g>
</svg>
